<?xml version="1.0" encoding="utf-8"?>
<!-- Generator: Adobe Illustrator 16.0.0, SVG Export Plug-In . SVG Version: 6.00 Build 0)  -->
<!DOCTYPE svg PUBLIC "-//W3C//DTD SVG 1.1//EN" "http://www.w3.org/Graphics/SVG/1.1/DTD/svg11.dtd">
<svg version="1.1" id="Layer_1" xmlns="http://www.w3.org/2000/svg" xmlns:xlink="http://www.w3.org/1999/xlink" x="0px" y="0px"
	 width="213.851px" height="175.132px" viewBox="0 0 213.851 175.132" enable-background="new 0 0 213.851 175.132"
	 xml:space="preserve">
<g>
	<g>
		<path fill="#F1F2F2" d="M151.464,111.005c0,0,15.303,11.552,1.213,30.613c-28.093-7.073-51.737,0-51.737,0
			c15.386-17.846-1.728-30.613-1.728-30.613H151.464z"/>
		<path fill="#D1D3D4" d="M153.374,140.369c-0.072,0.215-0.588,0.944-0.697,1.249c-28.48-7.23-51.737,0-51.737,0
			c15.538-18.232-2.04-30.613-2.04-30.613h7.938c0,0,4.908,23.729,17.116,24.936C136.159,137.145,149.683,139.168,153.374,140.369z"
			/>
	</g>
	<g>
		<path fill="#F1F2F2" d="M152.853,67.525c0,0,14.813,11.353,1.174,30.083c-27.191-6.95-50.078,0-50.078,0
			c14.893-17.536-1.672-30.083-1.672-30.083H152.853z"/>
		<path fill="#D1D3D4" d="M154.7,96.381c-0.069,0.212-0.568,0.928-0.674,1.228c-27.566-7.105-50.078,0-50.078,0
			c15.04-17.916-1.973-30.083-1.973-30.083h7.682c0,0,4.752,23.318,16.567,24.503S151.128,95.201,154.7,96.381z"/>
	</g>
	<path fill="#7B2E00" d="M153.521,109.694c0,0.726-0.585,1.311-1.31,1.311h-28.1v28.658l-2.62,0.258v-28.916h-22.89
		c-0.726,0-1.31-0.585-1.31-1.311c0-0.725,0.584-1.31,1.31-1.31h22.89V67.523h-19.068c-0.725,0-1.311-0.585-1.311-1.31
		c0-0.722,0.586-1.311,1.311-1.311h19.068V44.857c0-0.721,0.589-1.311,1.311-1.311c0.725,0,1.31,0.59,1.31,1.311v20.046h28.1
		c0.725,0,1.31,0.585,1.31,1.311c0,0.725-0.585,1.31-1.31,1.31h-28.1v40.861h28.1C152.936,108.385,153.521,108.97,153.521,109.694z"
		/>
	<g>
		<path fill="#F1F2F2" d="M100.903,26.934c0,0,16.528,11.412,1.31,30.244c-30.344-6.988-55.884,0-55.884,0
			c16.619-17.631-1.864-30.244-1.864-30.244H100.903z"/>
		<path fill="#D1D3D4" d="M102.965,55.943c-0.077,0.213-0.634,0.933-0.752,1.234c-30.763-7.144-55.884,0-55.884,0
			c16.783-18.013-2.201-30.244-2.201-30.244H52.7c0,0,5.303,23.443,18.487,24.634S98.979,54.758,102.965,55.943z"/>
	</g>
	<g>
		<path fill="#F1F2F2" d="M103.578,63.4c0,0,18.435,13.375,1.461,35.442c-33.844-8.188-62.327,0-62.327,0
			C61.247,78.183,40.631,63.4,40.631,63.4H103.578z"/>
		<path fill="#D1D3D4" d="M105.878,97.396c-0.087,0.25-0.708,1.094-0.839,1.447c-34.312-8.371-62.327,0-62.327,0
			C61.43,77.734,40.255,63.4,40.255,63.4h9.561c0,0,5.915,27.473,20.62,28.868C85.141,93.663,101.431,96.007,105.878,97.396z"/>
	</g>
	<g>
		<path fill="#F1F2F2" d="M104.37,106.659c0,0,18.874,12.646,1.496,33.511c-34.648-7.742-63.811,0-63.811,0
			c18.977-19.534-2.129-33.511-2.129-33.511H104.37z"/>
		<path fill="#D1D3D4" d="M106.726,138.802c-0.089,0.236-0.725,1.034-0.859,1.368c-35.127-7.915-63.811,0-63.811,0
			c19.164-19.958-2.515-33.511-2.515-33.511h9.788c0,0,6.056,25.976,21.111,27.295C85.495,135.272,102.173,137.488,106.726,138.802z
			"/>
	</g>
	<g>
		<path fill="#F1F2F2" d="M32.378,108.064c0,0,9.081,7.075,0.721,18.748c-16.672-4.331-30.703,0-30.703,0
			c9.131-10.929-1.024-18.748-1.024-18.748H32.378z"/>
		<path fill="#D1D3D4" d="M33.511,126.048c-0.043,0.132-0.348,0.578-0.412,0.765c-16.902-4.428-30.703,0-30.703,0
			c9.221-11.166-1.209-18.748-1.209-18.748h4.709c0,0,2.914,14.533,10.157,15.271C23.296,124.073,31.321,125.313,33.511,126.048z"/>
	</g>
	<path fill="none" stroke="#EC008C" stroke-width="0.4367" stroke-miterlimit="10" d="M139.896,137.57"/>
	<path fill="#7B2E00" d="M106.092,105.327c0,0.726-0.585,1.311-1.311,1.311H73.825v34.576h-2.62v-34.576H40.254
		c-0.726,0-1.31-0.585-1.31-1.311c0-0.725,0.584-1.31,1.31-1.31h30.951V63.4H40.254c-0.726,0-1.31-0.585-1.31-1.31
		c0-0.726,0.584-1.311,1.31-1.311h30.951V26.934H44.128c-0.726,0-1.311-0.586-1.311-1.311s0.585-1.311,1.311-1.311h27.077V1.311
		c0-0.721,0.59-1.311,1.31-1.311c0.726,0,1.311,0.59,1.311,1.311v23.002h27.078c0.725,0,1.31,0.586,1.31,1.311
		s-0.585,1.311-1.31,1.311H73.825V60.78h30.956c0.726,0,1.311,0.585,1.311,1.311c0,0.725-0.585,1.31-1.311,1.31H73.825v40.617
		h30.956C105.507,104.018,106.092,104.603,106.092,105.327z"/>
	<path fill="#7B2E00" d="M33.302,107.074c0,0.725-0.59,1.311-1.311,1.311H17.958v27.37h-2.62v-27.37H1.31
		c-0.725,0-1.31-0.586-1.31-1.311s0.585-1.311,1.31-1.311h14.028V87.396c0-0.756,0.59-1.368,1.31-1.368
		c0.726,0,1.311,0.612,1.311,1.368v18.368h14.033C32.712,105.764,33.302,106.35,33.302,107.074z"/>
	<path fill="#AC6137" d="M212.917,120.686c0,0,0,0-40.762,16.887c-40.762,16.888-26.204,37.56-26.204,37.56s-115.88,0-135.388,0
		c8.152-24.748-3.785-27.077-3.785-27.077v-12.229h29.988l5.387,5.386H97.91c0,0,52.408,1.019,110.058-22.273
		c2.365-1.019,3.202-1.31,3.202-1.31l0.308-0.101c0.535-0.157,0.48-0.162,0.825-0.162c0.96,0,1.554,0.782,1.554,1.743
		c0,0.677-0.086,1.088-0.753,1.468L212.917,120.686z"/>
	<path fill="#A15125" d="M12.39,168.578c-0.441,1.988-1.041,4.167-1.826,6.554c19.508,0,135.388,0,135.388,0
		s-14.558-20.672,26.204-37.56c40.762-16.887,40.762-16.887,40.762-16.887l0.187-0.108c0.667-0.38,0.753-0.791,0.753-1.468
		c0-0.961-0.594-1.743-1.554-1.743c-0.345,0-0.29,0.005-0.825,0.162l-0.308,0.101c0,0-0.837,0.291-3.202,1.31
		c-25.468,10.29-49.912,15.835-69.268,18.819c0,0,7.377,30.969-28.383,30.969S12.39,168.578,12.39,168.578z"/>
	<g>
		<g>
			<path fill="#7B2E00" stroke="#7B2E00" stroke-width="0.4367" stroke-miterlimit="10" d="M47.395,155.661
				c0,1.206-0.978,2.184-2.185,2.184h-4.476c-1.206,0-2.185-0.978-2.185-2.184v-1.42c0-1.206,0.979-2.184,2.185-2.184h4.476
				c1.207,0,2.185,0.978,2.185,2.184V155.661z"/>
			<circle fill="#231F20" cx="42.972" cy="154.951" r="1.965"/>
		</g>
		<g>
			<path fill="#7B2E00" stroke="#7B2E00" stroke-width="0.4367" stroke-miterlimit="10" d="M58.9,155.661
				c0,1.206-0.978,2.184-2.184,2.184H52.24c-1.206,0-2.184-0.978-2.184-2.184v-1.42c0-1.206,0.978-2.184,2.184-2.184h4.477
				c1.206,0,2.184,0.978,2.184,2.184V155.661z"/>
			<circle fill="#231F20" cx="54.479" cy="154.951" r="1.966"/>
		</g>
		<g>
			<path fill="#7B2E00" stroke="#7B2E00" stroke-width="0.4367" stroke-miterlimit="10" d="M70.406,155.661
				c0,1.206-0.978,2.184-2.184,2.184h-4.477c-1.206,0-2.185-0.978-2.185-2.184v-1.42c0-1.206,0.979-2.184,2.185-2.184h4.477
				c1.206,0,2.184,0.978,2.184,2.184V155.661z"/>
			<circle fill="#231F20" cx="65.984" cy="154.951" r="1.965"/>
		</g>
		<g>
			<path fill="#7B2E00" stroke="#7B2E00" stroke-width="0.4367" stroke-miterlimit="10" d="M81.911,155.661
				c0,1.206-0.977,2.184-2.184,2.184h-4.477c-1.205,0-2.184-0.978-2.184-2.184v-1.42c0-1.206,0.979-2.184,2.184-2.184h4.477
				c1.207,0,2.184,0.978,2.184,2.184V155.661z"/>
			<circle fill="#231F20" cx="77.49" cy="154.951" r="1.965"/>
		</g>
		<g>
			<path fill="#7B2E00" stroke="#7B2E00" stroke-width="0.4367" stroke-miterlimit="10" d="M93.418,155.661
				c0,1.206-0.978,2.184-2.184,2.184h-4.477c-1.206,0-2.185-0.978-2.185-2.184v-1.42c0-1.206,0.979-2.184,2.185-2.184h4.477
				c1.206,0,2.184,0.978,2.184,2.184V155.661z"/>
			<circle fill="#231F20" cx="88.996" cy="154.951" r="1.966"/>
		</g>
		<g>
			<path fill="#7B2E00" stroke="#7B2E00" stroke-width="0.4367" stroke-miterlimit="10" d="M104.924,155.661
				c0,1.206-0.978,2.184-2.184,2.184h-4.477c-1.206,0-2.184-0.978-2.184-2.184v-1.42c0-1.206,0.978-2.184,2.184-2.184h4.477
				c1.206,0,2.184,0.978,2.184,2.184V155.661z"/>
			<circle fill="#231F20" cx="100.502" cy="154.951" r="1.966"/>
		</g>
		<g>
			<path fill="#7B2E00" stroke="#7B2E00" stroke-width="0.4367" stroke-miterlimit="10" d="M116.431,155.661
				c0,1.206-0.979,2.184-2.184,2.184h-4.477c-1.207,0-2.185-0.978-2.185-2.184v-1.42c0-1.206,0.978-2.184,2.185-2.184h4.477
				c1.205,0,2.184,0.978,2.184,2.184V155.661z"/>
			<circle fill="#231F20" cx="112.008" cy="154.951" r="1.965"/>
		</g>
		<g>
			<path fill="#7B2E00" stroke="#7B2E00" stroke-width="0.4367" stroke-miterlimit="10" d="M127.936,155.661
				c0,1.206-0.978,2.184-2.184,2.184h-4.477c-1.206,0-2.184-0.978-2.184-2.184v-1.42c0-1.206,0.978-2.184,2.184-2.184h4.477
				c1.206,0,2.184,0.978,2.184,2.184V155.661z"/>
			<circle fill="#231F20" cx="123.514" cy="154.951" r="1.966"/>
		</g>
	</g>
	<g>
		<path fill="#7B2E00" d="M18.194,141.7c0,0.829-0.672,1.501-1.501,1.501h-3.079c-0.828,0-1.501-0.672-1.501-1.501v-0.977
			c0-0.829,0.673-1.501,1.501-1.501h3.079c0.829,0,1.501,0.672,1.501,1.501V141.7z"/>
		<path fill="#7B2E00" d="M26.099,141.7c0,0.829-0.672,1.501-1.502,1.501h-3.078c-0.829,0-1.501-0.672-1.501-1.501v-0.977
			c0-0.829,0.672-1.501,1.501-1.501h3.078c0.83,0,1.502,0.672,1.502,1.501V141.7z"/>
	</g>
	<polygon fill="#BE1E2D" points="47.435,14.74 74.612,14.74 74.612,2.184 47.435,2.184 53.847,8.462 	"/>
	<polygon fill="#BE1E2D" points="1.42,96.299 18.483,96.299 18.483,88.186 1.42,88.186 5.446,92.242 	"/>
</g>
</svg>
