<?xml version="1.0" encoding="utf-8"?>
<!-- Generator: Adobe Illustrator 16.0.0, SVG Export Plug-In . SVG Version: 6.00 Build 0)  -->
<!DOCTYPE svg PUBLIC "-//W3C//DTD SVG 1.1//EN" "http://www.w3.org/Graphics/SVG/1.1/DTD/svg11.dtd">
<svg version="1.1" id="Layer_1" xmlns="http://www.w3.org/2000/svg" xmlns:xlink="http://www.w3.org/1999/xlink" x="0px" y="0px"
	 width="449.597px" height="175.132px" viewBox="0 0 449.597 175.132" enable-background="new 0 0 449.597 175.132"
	 xml:space="preserve">
<g>
	<g>
		<path fill="#58595B" d="M56.696,116.293H5.479l7.879,8.143c0,0,11.03,51.217,59.623,50.692c48.592-0.525,125.552,0,125.552,0
			s0.525-31.781,19.7-30.993c4.465-6.83,6.566-13.397,6.566-13.397h-56.472l-4.728,8.669H83.225
			C83.225,139.406,58.271,139.406,56.696,116.293z"/>
		<path fill="#F1F2F2" d="M155.653,76.237c-0.114-0.203-0.229-0.404-0.34-0.604c-16.277-29.193,0.34-47.069,0.34-47.069h-33.519
			c0,0-16.848,18.125,0,47.674C122.135,76.237,132.998,66.388,155.653,76.237z"/>
		<path fill="#F1F2F2" d="M156.016,123.909c-0.115-0.201-0.229-0.403-0.341-0.604c-16.276-29.192,0.341-47.068,0.341-47.068h-33.519
			c0,0-16.849,18.122,0,47.672C122.497,123.909,133.361,114.06,156.016,123.909z"/>
		<path fill="#F1F2F2" d="M110.624,76.237c-0.116-0.203-0.229-0.404-0.341-0.604c-16.278-29.193,0.341-47.069,0.341-47.069H77.105
			c0,0-16.848,18.125,0,47.674C77.105,76.237,87.969,66.388,110.624,76.237z"/>
		<path fill="#F1F2F2" d="M110.624,123.909c-0.116-0.202-0.229-0.403-0.341-0.604c-16.278-29.192,0.341-47.069,0.341-47.069H77.105
			c0,0-16.848,18.123,0,47.673C77.105,123.909,87.969,114.06,110.624,123.909z"/>
		<path fill="#F1F2F2" d="M69.617,46.688c0,0-45.49,26.527-51.531,48.854c10.507,5.779,25.478,11.031,36.771,20.751
			C53.02,103.159,49.967,61.922,69.617,46.688z"/>
		<path fill="#D1D3D4" d="M121.105,74.369c0.329,0.617,0.671,1.239,1.029,1.868c0,0,10.863-9.85,33.519,0
			c-0.114-0.203-0.229-0.404-0.34-0.604c-16.277-29.193,0.34-47.069,0.34-47.069h-4.269c0,0-3.415,4.072-4.202,18.649
			c-0.788,4.858-1.671,15.366-11.67,19.568C125.513,70.983,121.105,74.369,121.105,74.369z"/>
		<path fill="#D1D3D4" d="M121.469,122.042c0.328,0.618,0.67,1.239,1.028,1.867c0,0,10.864-9.85,33.519,0
			c-0.115-0.201-0.229-0.403-0.341-0.604c-16.276-29.192,0.341-47.068,0.341-47.068h-4.268c0,0-3.414,4.07-4.202,18.649
			c-0.789,4.858-1.673,15.364-11.671,19.567C125.875,118.655,121.469,122.042,121.469,122.042z"/>
		<path fill="#D1D3D4" d="M76.075,122.042c0.328,0.618,0.671,1.239,1.03,1.867c0,0,10.863-9.85,33.519,0
			c-0.116-0.201-0.229-0.403-0.341-0.604c-16.278-29.192,0.341-47.068,0.341-47.068h-4.269c0,0-3.415,4.07-4.203,18.649
			c-0.788,4.858-1.671,15.364-11.67,19.567C80.482,118.655,76.075,122.042,76.075,122.042z"/>
		<path fill="#D1D3D4" d="M76.075,74.369c0.328,0.617,0.671,1.239,1.03,1.868c0,0,10.863-9.85,33.519,0
			c-0.116-0.203-0.229-0.404-0.341-0.604c-16.278-29.193,0.341-47.069,0.341-47.069h-4.269c0,0-3.415,4.072-4.203,18.649
			c-0.788,4.858-1.671,15.366-11.67,19.568C80.482,70.983,76.075,74.369,76.075,74.369z"/>
		<path fill="#D1D3D4" d="M18.838,93.246c-0.345,0.957-0.505,1.462-0.752,2.296c10.507,5.779,25.478,11.031,36.771,20.751
			c-1.838-13.134-4.891-54.371,14.76-69.604c0,0-2.57,1.498-6.569,4.082c0,0-7.321,9.214-12.13,29.669
			C48.34,89.239,45.331,104.608,18.838,93.246z"/>
		<g>
			<g>
				<circle fill="#231F20" cx="91.797" cy="153.341" r="2.714"/>
			</g>
			<g>
				<circle fill="#231F20" cx="103.435" cy="153.341" r="2.713"/>
			</g>
			<g>
				<circle fill="#231F20" cx="126.71" cy="153.341" r="2.713"/>
			</g>
			<g>
				<circle fill="#231F20" cx="138.348" cy="153.341" r="2.713"/>
			</g>
			<g>
				<circle fill="#231F20" cx="149.985" cy="153.341" r="2.714"/>
			</g>
			<g>
				<circle fill="#231F20" cx="161.623" cy="153.341" r="2.714"/>
			</g>
			<g>
				<circle fill="#231F20" cx="115.073" cy="153.341" r="2.712"/>
			</g>
			<g>
				<circle fill="#231F20" cx="80.16" cy="153.341" r="2.713"/>
			</g>
		</g>
		<g>
			<g>
				<path fill="#231F20" d="M184.899,138.357c0,0.976-0.79,1.765-1.766,1.765h-3.619c-0.976,0-1.765-0.789-1.765-1.765v-1.147
					c0-0.975,0.789-1.765,1.765-1.765h3.619c0.976,0,1.766,0.79,1.766,1.765V138.357z"/>
				<path fill="#231F20" d="M194.193,138.357c0,0.976-0.791,1.765-1.767,1.765h-3.619c-0.976,0-1.765-0.789-1.765-1.765v-1.147
					c0-0.975,0.789-1.765,1.765-1.765h3.619c0.976,0,1.767,0.79,1.767,1.765V138.357z"/>
			</g>
			<g>
				<path fill="#231F20" d="M203.454,138.357c0,0.976-0.79,1.765-1.766,1.765h-3.619c-0.975,0-1.765-0.789-1.765-1.765v-1.147
					c0-0.975,0.79-1.765,1.765-1.765h3.619c0.976,0,1.766,0.79,1.766,1.765V138.357z"/>
				<path fill="#231F20" d="M212.748,138.357c0,0.976-0.791,1.765-1.767,1.765h-3.619c-0.974,0-1.765-0.789-1.765-1.765v-1.147
					c0-0.975,0.791-1.765,1.765-1.765h3.619c0.976,0,1.767,0.79,1.767,1.765V138.357z"/>
			</g>
		</g>
		<path fill="#7B2E00" d="M91.721,2.561v136.706h-2.739V2.561c0-1.414,0.614-2.561,1.37-2.561C91.106,0,91.721,1.146,91.721,2.561z"
			/>
		<path fill="#7B2E00" d="M114.056,27.194c0,0.753-0.616,1.369-1.369,1.369H76.117c-0.015,0-0.028,0-0.042-0.004
			c-0.735-0.018-1.328-0.626-1.328-1.365c0-0.744,0.593-1.346,1.328-1.364c0.014-0.005,0.027-0.005,0.042-0.005h36.569
			C113.439,25.825,114.056,26.437,114.056,27.194z"/>
		<polygon fill="#231F20" points="117.386,15.375 88.981,15.375 88.981,2.253 117.386,2.253 110.684,8.813 		"/>
		<path fill="#7B2E00" d="M136.882,2.563v136.843h-2.739V2.563c0-1.416,0.613-2.563,1.37-2.563S136.882,1.147,136.882,2.563z"/>
		<polygon fill="#231F20" points="162.547,15.375 134.143,15.375 134.143,2.253 162.547,2.253 155.845,8.813 		"/>
		<path fill="#7B2E00" d="M114.056,77.606c0,0.754-0.616,1.37-1.369,1.37H76.117c-0.015,0-0.028,0-0.042-0.004
			c-0.735-0.02-1.328-0.626-1.328-1.366c0-0.743,0.593-1.346,1.328-1.364c0.014-0.004,0.027-0.004,0.042-0.004h36.569
			C113.439,76.238,114.056,76.85,114.056,77.606z"/>
		<path fill="#7B2E00" d="M157.539,27.194c0,0.752-0.617,1.369-1.369,1.369H119.6c-0.014,0-0.027,0-0.042-0.005
			c-0.733-0.019-1.328-0.625-1.328-1.364c0-0.744,0.595-1.347,1.328-1.364c0.015-0.006,0.028-0.006,0.042-0.006h36.57
			C156.922,25.824,157.539,26.437,157.539,27.194z"/>
		<path fill="#7B2E00" d="M157.539,77.606c0,0.753-0.617,1.369-1.369,1.369H119.6c-0.014,0-0.027,0-0.042-0.004
			c-0.733-0.019-1.328-0.626-1.328-1.365c0-0.744,0.595-1.347,1.328-1.365c0.015-0.004,0.028-0.004,0.042-0.004h36.57
			C156.922,76.237,157.539,76.85,157.539,77.606z"/>
		<path fill="#7B2E00" d="M216.416,69.165c0,0.753-0.617,1.369-1.37,1.369h-36.57c-0.013,0-0.026,0-0.04-0.004
			c-0.736-0.02-1.328-0.626-1.328-1.365c0-0.745,0.592-1.347,1.328-1.364c0.014-0.006,0.027-0.006,0.04-0.006h36.57
			C215.799,67.795,216.416,68.407,216.416,69.165z"/>
		<path fill="#F1F2F2" d="M214.436,118.207c-0.115-0.202-0.228-0.404-0.341-0.604c-16.276-29.192,0.341-47.068,0.341-47.068h-33.519
			c0,0-16.848,18.123,0,47.673C180.917,118.207,191.782,108.356,214.436,118.207z"/>
		<path fill="#D1D3D4" d="M179.889,116.339c0.328,0.618,0.67,1.24,1.028,1.868c0,0,10.865-9.851,33.519,0
			c-0.115-0.202-0.228-0.404-0.341-0.604c-16.276-29.192,0.341-47.068,0.341-47.068h-4.268c0,0-3.414,4.071-4.201,18.648
			c-0.79,4.859-1.673,15.366-11.672,19.568C184.295,112.952,179.889,116.339,179.889,116.339z"/>
		<path fill="#7B2E00" d="M195.76,49.27v81.695h-2.74V49.27c0-0.847,0.613-1.53,1.369-1.53S195.76,48.423,195.76,49.27z"/>
		<polygon fill="#231F20" points="210.854,60.88 193.02,60.88 193.02,52.4 210.854,52.4 206.646,56.641 		"/>
		<path fill="none" stroke="#231F20" stroke-width="0.4564" stroke-miterlimit="10" d="M43.852,116.293"/>
		<path fill="#414042" d="M200.613,161.282c-2.529,7.848-2.081,13.846-2.081,13.846s-76.96-0.525-125.552,0
			c-48.593,0.524-59.623-50.692-59.623-50.692L0,116.293h24.364h9.356h22.976c0,0-5.641,48.74,37.705,48.776
			C130.726,165.1,165.154,169.938,200.613,161.282z"/>
	</g>
	<path fill-rule="evenodd" clip-rule="evenodd" fill="#FFFFFF" d="M96.252,12.872c-0.449-0.044-0.771-0.233-0.84-0.701
		c-0.047-0.332,0.077-0.606,0.361-0.782c0.389-0.245,0.752-0.151,1.061,0.133c0.547-0.542,1.079-1.07,1.587-1.577
		c-0.174-0.34-0.374-0.658-0.508-1.004c-0.191-0.497-0.183-1.018-0.021-1.525c0.053-0.163,0.039-0.272-0.092-0.398
		c-0.312-0.302-0.607-0.622-0.918-0.944c-0.354,0.329-0.712,0.431-1.11,0.199c-0.29-0.169-0.441-0.505-0.373-0.836
		c0.087-0.426,0.39-0.617,0.811-0.682c0.05-0.424,0.254-0.723,0.702-0.788c0.336-0.05,0.64,0.1,0.799,0.385
		c0.217,0.395,0.114,0.743-0.161,1.047c0.31,0.316,0.613,0.627,0.933,0.955c0.804-0.887,1.839-1.269,3.002-1.332
		c1.166-0.063,2.201,0.289,3.124,1.049c0.204-0.234,0.4-0.46,0.614-0.705c-0.262-0.281-0.376-0.648-0.125-1.052
		c0.184-0.295,0.469-0.419,0.811-0.361c0.432,0.071,0.627,0.374,0.697,0.785c0.425,0.067,0.723,0.281,0.799,0.72
		c0.057,0.31-0.11,0.643-0.389,0.8c-0.392,0.222-0.74,0.128-1.042-0.152c-0.242,0.251-0.479,0.494-0.728,0.751
		c0.619,1.336,0.317,2.367-0.606,3.352c0.438,0.433,0.878,0.863,1.33,1.305c0.228-0.206,0.501-0.337,0.843-0.25
		c0.353,0.093,0.608,0.418,0.608,0.78c0,0.358-0.235,0.653-0.582,0.767c-0.096,0.031-0.222,0.113-0.245,0.197
		c-0.104,0.373-0.324,0.606-0.709,0.658c-0.349,0.046-0.621-0.099-0.789-0.402c-0.188-0.34-0.141-0.663,0.109-0.96
		c0.019-0.022,0.035-0.048,0.082-0.112c-0.451-0.441-0.904-0.89-1.368-1.326c-0.047-0.043-0.189-0.06-0.229-0.023
		c-0.093,0.085-0.206,0.205-0.213,0.318c-0.025,0.413-0.008,0.828-0.008,1.271c-0.232,0.001-0.446,0.001-0.661,0.001
		c-0.023-0.125-0.044-0.241-0.065-0.357c-0.033,0.002-0.068,0.002-0.103,0.004c-0.015,0.109-0.03,0.219-0.051,0.354
		c-0.159,0-0.322,0.001-0.494,0.001c-0.021-0.123-0.04-0.234-0.059-0.347c-0.027-0.004-0.057-0.01-0.085-0.014
		c-0.031,0.118-0.063,0.236-0.098,0.369c-0.143,0.001-0.291,0.001-0.457,0.001c-0.023-0.122-0.047-0.241-0.068-0.36
		c-0.03-0.003-0.062-0.006-0.091-0.009c-0.031,0.12-0.063,0.24-0.099,0.374c-0.145,0-0.293,0-0.459,0
		c-0.025-0.122-0.049-0.244-0.072-0.367c-0.034,0.001-0.069,0.002-0.104,0.004c-0.018,0.109-0.032,0.218-0.053,0.354
		c-0.158,0-0.324,0-0.531,0c0-0.391-0.015-0.783,0.002-1.176c0.01-0.222-0.049-0.362-0.266-0.445
		c-0.158-0.061-0.302-0.161-0.523-0.281c-0.246,0.268-0.499,0.556-0.767,0.831c-0.269,0.274-0.554,0.537-0.847,0.82
		c0.331,0.374,0.445,0.76,0.156,1.174c-0.201,0.29-0.498,0.385-0.832,0.308C96.443,13.574,96.258,13.292,96.252,12.872z
		 M100.096,8.162c-0.523,0.006-0.955,0.452-0.95,0.982c0.007,0.523,0.446,0.954,0.981,0.957c0.535,0.005,0.97-0.45,0.958-1.001
		C101.073,8.569,100.64,8.157,100.096,8.162z M102.285,9.214c0.004,0.529,0.441,0.963,0.969,0.96
		c0.528-0.002,0.968-0.44,0.969-0.967c0.001-0.544-0.446-0.985-0.99-0.974C102.695,8.245,102.28,8.674,102.285,9.214z
		 M102.158,11.226c-0.176-0.304-0.33-0.573-0.511-0.887c-0.178,0.315-0.331,0.587-0.502,0.891
		C101.498,11.228,101.798,11.227,102.158,11.226z"/>
</g>
<g>
	<g>
		<g>
			<path fill="#F1F2F2" d="M294.375,45.81c0,0-45.49,26.529-51.531,48.855c10.508,5.779,25.479,11.031,36.773,20.75
				C277.778,102.282,274.725,61.045,294.375,45.81z"/>
			<path fill="#D1D3D4" d="M243.596,92.368c-0.344,0.958-0.505,1.463-0.752,2.297c10.508,5.779,25.479,11.031,36.773,20.75
				c-1.839-13.133-4.893-54.37,14.758-69.605c0,0-2.57,1.5-6.569,4.084c0,0-7.319,9.214-12.13,29.669
				C273.099,88.361,270.089,103.73,243.596,92.368z"/>
			<path fill="none" stroke="#231F20" stroke-width="0.4564" stroke-miterlimit="10" d="M268.609,115.415"/>
		</g>
		<path fill="#58595B" d="M281.494,116.293h-51.218l7.88,8.143c0,0,11.031,51.218,59.623,50.692s125.551,0,125.551,0
			s0.525-31.781,19.7-30.993c4.465-6.83,6.566-13.396,6.566-13.396h-56.472l-4.729,8.669h-80.373
			C308.023,139.407,283.07,139.407,281.494,116.293z"/>
		<g>
			<path fill="#F1F2F2" d="M335.422,76.237c-0.115-0.202-0.181-0.439-0.34-0.604c-23.541-24.335,0.34-47.068,0.34-47.068h-33.519
				c0,0-27.79,23.837,0,47.673C301.903,76.237,312.768,66.388,335.422,76.237z"/>
			<path fill="#D1D3D4" d="M299.546,74.089c0.521,0.619,1.328,1.242,2.357,2.148c0,0,8.021-7.606,26.231-2.298
				c3.634,0.935,3.634,0.935,7.287,2.298c-22.935-28.629,0-47.673,0-47.673h-5.897c0,0-5.327,5.874-6.115,20.451
				c-0.788,4.858-0.304,11.865-9.757,17.766C304.451,72.525,299.546,74.089,299.546,74.089z"/>
		</g>
		<g>
			<g>
				<circle fill="#231F20" cx="316.596" cy="153.341" r="2.713"/>
			</g>
			<g>
				<circle fill="#231F20" cx="328.233" cy="153.341" r="2.714"/>
			</g>
			<g>
				<circle fill="#231F20" cx="351.509" cy="153.341" r="2.714"/>
			</g>
			<g>
				<circle fill="#231F20" cx="363.146" cy="153.341" r="2.713"/>
			</g>
			<g>
				<circle fill="#231F20" cx="374.784" cy="153.341" r="2.714"/>
			</g>
			<g>
				<circle fill="#231F20" cx="386.421" cy="153.341" r="2.713"/>
			</g>
			<g>
				<circle fill="#231F20" cx="339.871" cy="153.341" r="2.713"/>
			</g>
			<g>
				<circle fill="#231F20" cx="304.958" cy="153.341" r="2.713"/>
			</g>
		</g>
		<g>
			<g>
				<path fill="#231F20" d="M409.697,138.358c0,0.975-0.79,1.765-1.765,1.765h-3.619c-0.976,0-1.765-0.79-1.765-1.765v-1.148
					c0-0.975,0.789-1.765,1.765-1.765h3.619c0.975,0,1.765,0.79,1.765,1.765V138.358z"/>
				<path fill="#231F20" d="M418.991,138.358c0,0.975-0.79,1.765-1.766,1.765h-3.618c-0.976,0-1.766-0.79-1.766-1.765v-1.148
					c0-0.975,0.79-1.765,1.766-1.765h3.618c0.976,0,1.766,0.79,1.766,1.765V138.358z"/>
			</g>
			<g>
				<path fill="#231F20" d="M428.252,138.358c0,0.975-0.79,1.765-1.765,1.765h-3.619c-0.976,0-1.765-0.79-1.765-1.765v-1.148
					c0-0.975,0.789-1.765,1.765-1.765h3.619c0.975,0,1.765,0.79,1.765,1.765V138.358z"/>
				<path fill="#231F20" d="M437.546,138.358c0,0.975-0.79,1.765-1.766,1.765h-3.618c-0.976,0-1.766-0.79-1.766-1.765v-1.148
					c0-0.975,0.79-1.765,1.766-1.765h3.618c0.976,0,1.766,0.79,1.766,1.765V138.358z"/>
			</g>
		</g>
		<path fill="#7B2E00" d="M338.854,27.195c0,0.753-0.616,1.369-1.37,1.369h-36.569c-0.014,0-0.027,0-0.041-0.005
			c-0.735-0.018-1.328-0.625-1.328-1.364c0-0.744,0.593-1.347,1.328-1.365c0.014-0.004,0.027-0.004,0.041-0.004h36.569
			C338.238,25.826,338.854,26.438,338.854,27.195z"/>
		<path fill="#7B2E00" d="M382.338,27.194c0,0.753-0.617,1.369-1.37,1.369h-36.569c-0.014,0-0.027,0-0.041-0.004
			c-0.735-0.019-1.328-0.625-1.328-1.365c0-0.744,0.593-1.347,1.328-1.364c0.014-0.005,0.027-0.005,0.041-0.005h36.569
			C381.721,25.825,382.338,26.437,382.338,27.194z"/>
		<path fill="none" stroke="#231F20" stroke-width="0.4564" stroke-miterlimit="10" d="M268.649,116.293"/>
		<path fill="#414042" d="M425.412,161.282c-2.529,7.848-2.082,13.846-2.082,13.846s-76.959-0.525-125.551,0
			s-59.623-50.692-59.623-50.692l-13.357-8.143h24.364h9.356h22.975c0,0-5.641,48.74,37.706,48.776
			C355.523,165.099,389.952,169.938,425.412,161.282z"/>
		<g>
			<path fill="#F1F2F2" d="M380.451,76.237c-0.115-0.202-0.18-0.439-0.34-0.604c-23.54-24.335,0.34-47.068,0.34-47.068h-33.518
				c0,0-27.791,23.837,0,47.673C346.934,76.237,357.797,66.388,380.451,76.237z"/>
			<path fill="#D1D3D4" d="M344.575,74.089c0.521,0.619,1.329,1.242,2.358,2.148c0,0,8.02-7.606,26.23-2.298
				c3.634,0.935,3.634,0.935,7.287,2.298c-22.934-28.629,0-47.673,0-47.673h-5.896c0,0-5.328,5.874-6.116,20.451
				c-0.788,4.858-0.304,11.865-9.757,17.766C349.48,72.525,344.575,74.089,344.575,74.089z"/>
		</g>
		<g>
			<path fill="#F1F2F2" d="M335.422,123.91c-0.115-0.202-0.181-0.439-0.34-0.604c-23.541-24.334,0.34-47.068,0.34-47.068h-33.519
				c0,0-27.79,23.836,0,47.673C301.903,123.91,312.768,114.061,335.422,123.91z"/>
			<path fill="#D1D3D4" d="M299.546,121.761c0.521,0.62,1.328,1.244,2.357,2.149c0,0,8.021-7.605,26.231-2.298
				c3.634,0.935,3.634,0.935,7.287,2.298c-22.935-28.629,0-47.673,0-47.673h-5.897c0,0-5.327,5.875-6.115,20.452
				c-0.788,4.858-0.304,11.864-9.757,17.765C304.451,120.198,299.546,121.761,299.546,121.761z"/>
		</g>
		<g>
			<path fill="#F1F2F2" d="M380.451,123.91c-0.115-0.202-0.18-0.439-0.34-0.604c-23.54-24.334,0.34-47.068,0.34-47.068h-33.518
				c0,0-27.791,23.836,0,47.673C346.934,123.91,357.797,114.061,380.451,123.91z"/>
			<path fill="#D1D3D4" d="M344.575,121.761c0.521,0.62,1.329,1.244,2.358,2.149c0,0,8.02-7.605,26.23-2.298
				c3.634,0.935,3.634,0.935,7.287,2.298c-22.934-28.629,0-47.673,0-47.673h-5.896c0,0-5.328,5.875-6.116,20.452
				c-0.788,4.858-0.304,11.864-9.757,17.765C349.48,120.198,344.575,121.761,344.575,121.761z"/>
		</g>
		<path fill="#7B2E00" d="M316.519,2.561v136.707h-2.738V2.561c0-1.414,0.613-2.561,1.37-2.561
			C315.905,0,316.519,1.146,316.519,2.561z"/>
		<path fill="#7B2E00" d="M361.68,2.563v136.844h-2.738V2.563c0-1.416,0.613-2.563,1.369-2.563C361.067,0,361.68,1.147,361.68,2.563
			z"/>
		<path fill="#7B2E00" d="M338.854,77.607c0,0.753-0.616,1.369-1.37,1.369h-36.569c-0.014,0-0.027,0-0.041-0.004
			c-0.735-0.019-1.328-0.626-1.328-1.365c0-0.744,0.593-1.347,1.328-1.364c0.014-0.005,0.027-0.005,0.041-0.005h36.569
			C338.238,76.238,338.854,76.85,338.854,77.607z"/>
		<path fill="#7B2E00" d="M382.338,77.607c0,0.753-0.617,1.369-1.37,1.369h-36.569c-0.014,0-0.027,0-0.041-0.005
			c-0.735-0.019-1.328-0.626-1.328-1.364c0-0.745,0.593-1.347,1.328-1.365c0.014-0.005,0.027-0.005,0.041-0.005h36.569
			C381.721,76.237,382.338,76.85,382.338,77.607z"/>
		<g>
			<path fill="#F1F2F2" d="M439.234,118.207c-0.115-0.202-0.182-0.439-0.34-0.604c-23.541-24.334,0.34-47.068,0.34-47.068h-33.52
				c0,0-27.789,23.836,0,47.673C405.715,118.207,416.58,108.356,439.234,118.207z"/>
			<path fill="#D1D3D4" d="M403.357,116.059c0.521,0.619,1.329,1.243,2.357,2.148c0,0,8.021-7.605,26.232-2.298
				c3.633,0.935,3.633,0.935,7.287,2.298c-22.935-28.628,0-47.673,0-47.673h-5.897c0,0-5.327,5.875-6.116,20.452
				c-0.787,4.858-0.304,11.864-9.756,17.765C408.264,114.495,403.357,116.059,403.357,116.059z"/>
		</g>
		<path fill="#7B2E00" d="M441.214,69.165c0,0.753-0.616,1.369-1.369,1.369h-36.569c-0.015,0-0.027,0-0.041-0.004
			c-0.736-0.019-1.329-0.626-1.329-1.365c0-0.744,0.593-1.347,1.329-1.365c0.014-0.004,0.026-0.004,0.041-0.004h36.569
			C440.598,67.796,441.214,68.407,441.214,69.165z"/>
		<path fill="#7B2E00" d="M420.557,49.271v81.695h-2.738V49.271c0-0.847,0.613-1.531,1.369-1.531S420.557,48.424,420.557,49.271z"/>
		<polygon fill="#231F20" points="342.185,15.376 313.78,15.376 313.78,2.253 342.185,2.253 335.482,8.814 		"/>
		<polygon fill="#231F20" points="387.346,15.376 358.941,15.376 358.941,2.253 387.346,2.253 380.645,8.814 		"/>
		<polygon fill="#231F20" points="435.652,60.881 417.818,60.881 417.818,52.401 435.652,52.401 431.444,56.641 		"/>
	</g>
	<path fill-rule="evenodd" clip-rule="evenodd" fill="#FFFFFF" d="M321.05,12.872c-0.448-0.043-0.771-0.232-0.839-0.701
		c-0.047-0.332,0.077-0.605,0.36-0.782c0.39-0.244,0.753-0.15,1.062,0.133c0.547-0.542,1.078-1.07,1.588-1.577
		c-0.175-0.34-0.375-0.658-0.508-1.003c-0.192-0.498-0.184-1.017-0.021-1.525c0.053-0.164,0.039-0.273-0.092-0.398
		c-0.313-0.302-0.607-0.622-0.92-0.945c-0.352,0.33-0.711,0.431-1.109,0.199c-0.29-0.169-0.441-0.505-0.373-0.835
		c0.088-0.426,0.391-0.618,0.812-0.683c0.049-0.424,0.253-0.723,0.702-0.788c0.336-0.049,0.64,0.1,0.799,0.386
		c0.217,0.394,0.113,0.742-0.16,1.047c0.309,0.316,0.611,0.627,0.932,0.954c0.803-0.887,1.838-1.268,3.002-1.331
		c1.165-0.063,2.201,0.288,3.123,1.048c0.205-0.233,0.402-0.46,0.615-0.704c-0.262-0.281-0.376-0.649-0.125-1.052
		c0.184-0.296,0.469-0.419,0.811-0.362c0.431,0.072,0.627,0.374,0.697,0.786c0.425,0.066,0.721,0.281,0.799,0.719
		c0.057,0.31-0.11,0.643-0.389,0.801c-0.392,0.221-0.741,0.127-1.043-0.153c-0.242,0.251-0.479,0.495-0.727,0.751
		c0.619,1.336,0.317,2.368-0.607,3.352c0.439,0.433,0.879,0.864,1.33,1.305c0.229-0.205,0.503-0.337,0.843-0.249
		c0.353,0.092,0.61,0.417,0.61,0.78c-0.002,0.357-0.236,0.653-0.584,0.767c-0.096,0.031-0.221,0.113-0.245,0.196
		c-0.104,0.373-0.323,0.607-0.709,0.658c-0.349,0.046-0.619-0.098-0.788-0.402c-0.189-0.339-0.141-0.663,0.108-0.959
		c0.02-0.023,0.036-0.049,0.083-0.113c-0.451-0.44-0.905-0.889-1.367-1.325c-0.047-0.044-0.189-0.06-0.23-0.023
		c-0.093,0.085-0.207,0.205-0.213,0.317c-0.025,0.413-0.009,0.829-0.008,1.271c-0.232,0.001-0.447,0.001-0.662,0.002
		c-0.021-0.126-0.043-0.241-0.064-0.357c-0.033,0.001-0.068,0.002-0.104,0.003c-0.015,0.109-0.03,0.219-0.051,0.354
		c-0.158,0-0.322,0.001-0.494,0.001c-0.021-0.123-0.039-0.235-0.059-0.348c-0.027-0.004-0.056-0.009-0.084-0.013
		c-0.031,0.117-0.063,0.235-0.098,0.368c-0.143,0.001-0.291,0.001-0.457,0.001c-0.023-0.122-0.047-0.241-0.068-0.359
		c-0.031-0.004-0.061-0.007-0.092-0.009c-0.031,0.119-0.063,0.239-0.098,0.373c-0.145,0.001-0.293,0.001-0.459,0.001
		c-0.024-0.122-0.049-0.245-0.073-0.368c-0.034,0.001-0.068,0.003-0.103,0.005c-0.018,0.108-0.033,0.218-0.053,0.354
		c-0.158,0-0.324,0-0.531,0c-0.002-0.392-0.015-0.784,0.002-1.177c0.009-0.222-0.049-0.362-0.267-0.445
		c-0.158-0.061-0.302-0.161-0.522-0.281c-0.246,0.268-0.499,0.557-0.768,0.831c-0.269,0.275-0.553,0.537-0.846,0.82
		c0.33,0.374,0.444,0.761,0.156,1.175c-0.201,0.29-0.498,0.384-0.832,0.308C321.242,13.574,321.056,13.292,321.05,12.872z
		 M324.895,8.163c-0.523,0.006-0.955,0.451-0.949,0.981c0.005,0.524,0.445,0.954,0.979,0.958c0.536,0.004,0.971-0.451,0.959-1.002
		C325.871,8.569,325.438,8.157,324.895,8.163z M327.084,9.214c0.004,0.53,0.44,0.964,0.969,0.961
		c0.527-0.002,0.968-0.441,0.969-0.967c0-0.545-0.446-0.985-0.99-0.974C327.494,8.246,327.079,8.675,327.084,9.214z M326.957,11.227
		c-0.176-0.305-0.33-0.574-0.511-0.888c-0.178,0.315-0.331,0.588-0.501,0.891C326.297,11.229,326.597,11.228,326.957,11.227z"/>
</g>
</svg>
