<?xml version="1.0" encoding="utf-8"?>
<!-- Generator: Adobe Illustrator 16.0.0, SVG Export Plug-In . SVG Version: 6.00 Build 0)  -->
<!DOCTYPE svg PUBLIC "-//W3C//DTD SVG 1.1//EN" "http://www.w3.org/Graphics/SVG/1.1/DTD/svg11.dtd">
<svg version="1.1" id="Layer_1" xmlns="http://www.w3.org/2000/svg" xmlns:xlink="http://www.w3.org/1999/xlink" x="0px" y="0px"
	 width="224.799px" height="175.132px" viewBox="0 0 224.799 175.132" enable-background="new 0 0 224.799 175.132"
	 xml:space="preserve">
<g>
	<g>
		<g>
			<path fill="#F1F2F2" d="M69.576,45.81c0,0-45.49,26.529-51.531,48.855c10.508,5.779,25.479,11.031,36.773,20.75
				C52.979,102.282,49.926,61.045,69.576,45.81z"/>
			<path fill="#D1D3D4" d="M18.797,92.368c-0.344,0.958-0.505,1.463-0.752,2.297c10.508,5.779,25.479,11.031,36.773,20.75
				c-1.839-13.133-4.893-54.37,14.758-69.605c0,0-2.57,1.5-6.569,4.084c0,0-7.319,9.214-12.13,29.669
				C48.3,88.361,45.29,103.73,18.797,92.368z"/>
			<path fill="none" stroke="#231F20" stroke-width="0.4564" stroke-miterlimit="10" d="M43.811,115.415"/>
		</g>
		<path fill="#58595B" d="M56.695,116.293H5.478l7.88,8.143c0,0,11.031,51.218,59.623,50.692s125.551,0,125.551,0
			s0.525-31.781,19.7-30.993c4.465-6.83,6.566-13.396,6.566-13.396h-56.472l-4.729,8.669H83.225
			C83.225,139.407,58.271,139.407,56.695,116.293z"/>
		<g>
			<path fill="#F1F2F2" d="M110.623,76.237c-0.115-0.202-0.181-0.439-0.34-0.604c-23.541-24.335,0.34-47.068,0.34-47.068H77.104
				c0,0-27.79,23.837,0,47.673C77.104,76.237,87.969,66.388,110.623,76.237z"/>
			<path fill="#D1D3D4" d="M74.747,74.089c0.52,0.619,1.328,1.242,2.357,2.148c0,0,8.021-7.606,26.231-2.298
				c3.634,0.935,3.634,0.935,7.287,2.298c-22.935-28.629,0-47.673,0-47.673h-5.897c0,0-5.327,5.874-6.115,20.451
				c-0.788,4.858-0.304,11.865-9.757,17.766C79.652,72.525,74.747,74.089,74.747,74.089z"/>
		</g>
		<g>
			<g>
				<circle fill="#231F20" cx="91.797" cy="153.341" r="2.713"/>
			</g>
			<g>
				<circle fill="#231F20" cx="103.435" cy="153.341" r="2.714"/>
			</g>
			<g>
				<circle fill="#231F20" cx="126.71" cy="153.341" r="2.714"/>
			</g>
			<g>
				<circle fill="#231F20" cx="138.347" cy="153.341" r="2.713"/>
			</g>
			<g>
				<circle fill="#231F20" cx="149.985" cy="153.341" r="2.714"/>
			</g>
			<g>
				<circle fill="#231F20" cx="161.623" cy="153.341" r="2.713"/>
			</g>
			<g>
				<circle fill="#231F20" cx="115.072" cy="153.341" r="2.713"/>
			</g>
			<g>
				<circle fill="#231F20" cx="80.16" cy="153.341" r="2.713"/>
			</g>
		</g>
		<g>
			<g>
				<path fill="#231F20" d="M184.898,138.358c0,0.975-0.79,1.765-1.765,1.765h-3.619c-0.976,0-1.765-0.79-1.765-1.765v-1.148
					c0-0.975,0.789-1.765,1.765-1.765h3.619c0.975,0,1.765,0.79,1.765,1.765V138.358z"/>
				<path fill="#231F20" d="M194.192,138.358c0,0.975-0.79,1.765-1.766,1.765h-3.619c-0.975,0-1.765-0.79-1.765-1.765v-1.148
					c0-0.975,0.79-1.765,1.765-1.765h3.619c0.976,0,1.766,0.79,1.766,1.765V138.358z"/>
			</g>
			<g>
				<path fill="#231F20" d="M203.453,138.358c0,0.975-0.79,1.765-1.765,1.765h-3.619c-0.976,0-1.765-0.79-1.765-1.765v-1.148
					c0-0.975,0.789-1.765,1.765-1.765h3.619c0.975,0,1.765,0.79,1.765,1.765V138.358z"/>
				<path fill="#231F20" d="M212.747,138.358c0,0.975-0.79,1.765-1.766,1.765h-3.618c-0.976,0-1.766-0.79-1.766-1.765v-1.148
					c0-0.975,0.79-1.765,1.766-1.765h3.618c0.976,0,1.766,0.79,1.766,1.765V138.358z"/>
			</g>
		</g>
		<path fill="#7B2E00" d="M114.056,27.195c0,0.753-0.616,1.369-1.37,1.369H76.116c-0.014,0-0.027,0-0.041-0.005
			c-0.735-0.018-1.328-0.625-1.328-1.364c0-0.744,0.593-1.347,1.328-1.365c0.014-0.004,0.027-0.004,0.041-0.004h36.569
			C113.439,25.826,114.056,26.438,114.056,27.195z"/>
		<path fill="#7B2E00" d="M157.539,27.194c0,0.753-0.617,1.369-1.37,1.369H119.6c-0.014,0-0.027,0-0.041-0.004
			c-0.735-0.019-1.328-0.625-1.328-1.365c0-0.744,0.593-1.347,1.328-1.364c0.014-0.005,0.027-0.005,0.041-0.005h36.569
			C156.922,25.825,157.539,26.437,157.539,27.194z"/>
		<path fill="none" stroke="#231F20" stroke-width="0.4564" stroke-miterlimit="10" d="M43.851,116.293"/>
		<path fill="#414042" d="M200.613,161.282c-2.529,7.848-2.082,13.846-2.082,13.846s-76.959-0.525-125.551,0
			s-59.623-50.692-59.623-50.692L0,116.293h24.364h9.356h22.975c0,0-5.641,48.74,37.706,48.776
			C130.725,165.099,165.153,169.938,200.613,161.282z"/>
		<g>
			<path fill="#F1F2F2" d="M155.652,76.237c-0.115-0.202-0.18-0.439-0.34-0.604c-23.54-24.335,0.34-47.068,0.34-47.068h-33.518
				c0,0-27.791,23.837,0,47.673C122.135,76.237,132.998,66.388,155.652,76.237z"/>
			<path fill="#D1D3D4" d="M119.776,74.089c0.521,0.619,1.329,1.242,2.358,2.148c0,0,8.02-7.606,26.23-2.298
				c3.634,0.935,3.634,0.935,7.287,2.298c-22.934-28.629,0-47.673,0-47.673h-5.896c0,0-5.328,5.874-6.116,20.451
				c-0.788,4.858-0.304,11.865-9.757,17.766C124.682,72.525,119.776,74.089,119.776,74.089z"/>
		</g>
		<g>
			<path fill="#F1F2F2" d="M110.623,123.91c-0.115-0.202-0.181-0.439-0.34-0.604c-23.541-24.334,0.34-47.068,0.34-47.068H77.104
				c0,0-27.79,23.836,0,47.673C77.104,123.91,87.969,114.061,110.623,123.91z"/>
			<path fill="#D1D3D4" d="M74.747,121.761c0.52,0.62,1.328,1.244,2.357,2.149c0,0,8.021-7.605,26.231-2.298
				c3.634,0.935,3.634,0.935,7.287,2.298c-22.935-28.629,0-47.673,0-47.673h-5.897c0,0-5.327,5.875-6.115,20.452
				c-0.788,4.858-0.304,11.864-9.757,17.765C79.652,120.198,74.747,121.761,74.747,121.761z"/>
		</g>
		<g>
			<path fill="#F1F2F2" d="M155.652,123.91c-0.115-0.202-0.18-0.439-0.34-0.604c-23.54-24.334,0.34-47.068,0.34-47.068h-33.518
				c0,0-27.791,23.836,0,47.673C122.135,123.91,132.998,114.061,155.652,123.91z"/>
			<path fill="#D1D3D4" d="M119.776,121.761c0.521,0.62,1.329,1.244,2.358,2.149c0,0,8.02-7.605,26.23-2.298
				c3.634,0.935,3.634,0.935,7.287,2.298c-22.934-28.629,0-47.673,0-47.673h-5.896c0,0-5.328,5.875-6.116,20.452
				c-0.788,4.858-0.304,11.864-9.757,17.765C124.682,120.198,119.776,121.761,119.776,121.761z"/>
		</g>
		<path fill="#7B2E00" d="M91.72,2.561v136.707h-2.738V2.561c0-1.414,0.613-2.561,1.37-2.561C91.106,0,91.72,1.146,91.72,2.561z"/>
		<path fill="#7B2E00" d="M136.881,2.563v136.844h-2.738V2.563c0-1.416,0.613-2.563,1.369-2.563
			C136.269,0,136.881,1.147,136.881,2.563z"/>
		<path fill="#7B2E00" d="M114.056,77.607c0,0.753-0.616,1.369-1.37,1.369H76.116c-0.014,0-0.027,0-0.041-0.004
			c-0.735-0.019-1.328-0.626-1.328-1.365c0-0.744,0.593-1.347,1.328-1.364c0.014-0.005,0.027-0.005,0.041-0.005h36.569
			C113.439,76.238,114.056,76.85,114.056,77.607z"/>
		<path fill="#7B2E00" d="M157.539,77.607c0,0.753-0.617,1.369-1.37,1.369H119.6c-0.014,0-0.027,0-0.041-0.005
			c-0.735-0.019-1.328-0.626-1.328-1.364c0-0.745,0.593-1.347,1.328-1.365c0.014-0.005,0.027-0.005,0.041-0.005h36.569
			C156.922,76.237,157.539,76.85,157.539,77.607z"/>
		<g>
			<path fill="#F1F2F2" d="M214.436,118.207c-0.115-0.202-0.182-0.439-0.34-0.604c-23.541-24.334,0.34-47.068,0.34-47.068h-33.52
				c0,0-27.789,23.836,0,47.673C180.916,118.207,191.781,108.356,214.436,118.207z"/>
			<path fill="#D1D3D4" d="M178.559,116.059c0.521,0.619,1.329,1.243,2.357,2.148c0,0,8.021-7.605,26.232-2.298
				c3.633,0.935,3.633,0.935,7.287,2.298c-22.935-28.628,0-47.673,0-47.673h-5.897c0,0-5.327,5.875-6.116,20.452
				c-0.787,4.858-0.304,11.864-9.756,17.765C183.465,114.495,178.559,116.059,178.559,116.059z"/>
		</g>
		<path fill="#7B2E00" d="M216.415,69.165c0,0.753-0.616,1.369-1.369,1.369h-36.569c-0.015,0-0.027,0-0.041-0.004
			c-0.736-0.019-1.329-0.626-1.329-1.365c0-0.744,0.593-1.347,1.329-1.365c0.014-0.004,0.026-0.004,0.041-0.004h36.569
			C215.799,67.796,216.415,68.407,216.415,69.165z"/>
		<path fill="#7B2E00" d="M195.758,49.271v81.695h-2.738V49.271c0-0.847,0.613-1.531,1.369-1.531S195.758,48.424,195.758,49.271z"/>
		<polygon fill="#231F20" points="117.386,15.376 88.981,15.376 88.981,2.253 117.386,2.253 110.684,8.814 		"/>
		<polygon fill="#231F20" points="162.547,15.376 134.143,15.376 134.143,2.253 162.547,2.253 155.846,8.814 		"/>
		<polygon fill="#231F20" points="210.854,60.881 193.02,60.881 193.02,52.401 210.854,52.401 206.646,56.641 		"/>
	</g>
	<path fill-rule="evenodd" clip-rule="evenodd" fill="#FFFFFF" d="M96.251,12.872c-0.448-0.043-0.771-0.232-0.839-0.701
		c-0.047-0.332,0.077-0.605,0.36-0.782c0.39-0.244,0.753-0.15,1.062,0.133c0.547-0.542,1.078-1.07,1.588-1.577
		c-0.175-0.34-0.375-0.658-0.508-1.003c-0.192-0.498-0.184-1.017-0.021-1.525c0.053-0.164,0.039-0.273-0.092-0.398
		c-0.313-0.302-0.607-0.622-0.92-0.945c-0.352,0.33-0.711,0.431-1.109,0.199c-0.29-0.169-0.441-0.505-0.373-0.835
		c0.088-0.426,0.391-0.618,0.812-0.683c0.049-0.424,0.253-0.723,0.702-0.788c0.336-0.049,0.64,0.1,0.799,0.386
		c0.217,0.394,0.113,0.742-0.16,1.047c0.309,0.316,0.611,0.627,0.932,0.954c0.803-0.887,1.838-1.268,3.002-1.331
		c1.165-0.063,2.201,0.288,3.123,1.048c0.205-0.233,0.402-0.46,0.615-0.704c-0.262-0.281-0.376-0.649-0.125-1.052
		c0.184-0.296,0.469-0.419,0.811-0.362c0.431,0.072,0.627,0.374,0.697,0.786c0.425,0.066,0.721,0.281,0.799,0.719
		c0.057,0.31-0.11,0.643-0.389,0.801c-0.392,0.221-0.741,0.127-1.043-0.153c-0.242,0.251-0.479,0.495-0.727,0.751
		c0.619,1.336,0.317,2.368-0.607,3.352c0.439,0.433,0.879,0.864,1.33,1.305c0.229-0.205,0.503-0.337,0.843-0.249
		c0.353,0.092,0.61,0.417,0.61,0.78c-0.002,0.357-0.236,0.653-0.584,0.767c-0.096,0.031-0.221,0.113-0.245,0.196
		c-0.104,0.373-0.323,0.607-0.709,0.658c-0.349,0.046-0.619-0.098-0.788-0.402c-0.189-0.339-0.141-0.663,0.108-0.959
		c0.02-0.023,0.036-0.049,0.083-0.113c-0.451-0.44-0.905-0.889-1.367-1.325c-0.047-0.044-0.189-0.06-0.23-0.023
		c-0.093,0.085-0.207,0.205-0.213,0.317c-0.025,0.413-0.009,0.829-0.008,1.271c-0.232,0.001-0.447,0.001-0.662,0.002
		c-0.021-0.126-0.043-0.241-0.064-0.357c-0.033,0.001-0.068,0.002-0.104,0.003c-0.015,0.109-0.03,0.219-0.051,0.354
		c-0.158,0-0.322,0.001-0.494,0.001c-0.021-0.123-0.039-0.235-0.059-0.348c-0.027-0.004-0.056-0.009-0.084-0.013
		c-0.031,0.117-0.063,0.235-0.098,0.368c-0.143,0.001-0.291,0.001-0.457,0.001c-0.023-0.122-0.047-0.241-0.068-0.359
		c-0.031-0.004-0.062-0.007-0.092-0.009c-0.031,0.119-0.063,0.239-0.098,0.373c-0.145,0.001-0.293,0.001-0.459,0.001
		c-0.024-0.122-0.049-0.245-0.073-0.368c-0.034,0.001-0.068,0.003-0.103,0.005c-0.018,0.108-0.033,0.218-0.053,0.354
		c-0.158,0-0.324,0-0.531,0c-0.002-0.392-0.015-0.784,0.002-1.177c0.009-0.222-0.049-0.362-0.267-0.445
		c-0.158-0.061-0.302-0.161-0.522-0.281c-0.246,0.268-0.499,0.557-0.768,0.831c-0.269,0.275-0.553,0.537-0.846,0.82
		c0.33,0.374,0.444,0.761,0.156,1.175c-0.201,0.29-0.498,0.384-0.832,0.308C96.443,13.574,96.257,13.292,96.251,12.872z
		 M100.096,8.163c-0.523,0.006-0.955,0.451-0.949,0.981c0.005,0.524,0.445,0.954,0.979,0.958c0.536,0.004,0.971-0.451,0.959-1.002
		C101.072,8.569,100.639,8.157,100.096,8.163z M102.285,9.214c0.004,0.53,0.44,0.964,0.969,0.961
		c0.527-0.002,0.968-0.441,0.969-0.967c0-0.545-0.446-0.985-0.99-0.974C102.695,8.246,102.28,8.675,102.285,9.214z M102.158,11.227
		c-0.176-0.305-0.33-0.574-0.511-0.888c-0.178,0.315-0.331,0.588-0.501,0.891C101.498,11.229,101.798,11.228,102.158,11.227z"/>
</g>
</svg>
