<?xml version="1.0" encoding="utf-8"?>
<!-- Generator: Adobe Illustrator 16.0.0, SVG Export Plug-In . SVG Version: 6.00 Build 0)  -->
<!DOCTYPE svg PUBLIC "-//W3C//DTD SVG 1.1//EN" "http://www.w3.org/Graphics/SVG/1.1/DTD/svg11.dtd">
<svg version="1.1" id="Layer_1" xmlns="http://www.w3.org/2000/svg" xmlns:xlink="http://www.w3.org/1999/xlink" x="0px" y="0px"
	 width="427.707px" height="175.132px" viewBox="0 0 427.707 175.132" enable-background="new 0 0 427.707 175.132"
	 xml:space="preserve">
<g>
	<path fill="#F1F2F2" d="M151.457,111.005c0,0,7.958,13.211,1.74,30.243c-28.294-6.987-52.107,0-52.107,0
		c6.219-17.032-1.738-30.243-1.738-30.243H151.457z"/>
	<path fill="#D1D3D4" d="M153.513,140.35c-0.073,0.21-0.208,0.604-0.315,0.898c-28.326-6.987-52.105,0-52.105,0
		c6.227-17.032-1.74-30.243-1.74-30.243h6.395c0,0,5.186,24.19,17.324,25.354C135.21,137.524,149.842,139.191,153.513,140.35z"/>
	<path fill="#F1F2F2" d="M152.568,67.525c0,0,7.606,13.212,1.662,30.244c-27.047-6.988-49.811,0-49.811,0
		c5.943-17.032-1.664-30.244-1.664-30.244H152.568z"/>
	<path fill="#D1D3D4" d="M154.528,96.889c-0.068,0.209-0.194,0.586-0.298,0.881c-27.047-6.988-49.811,0-49.811,0
		c5.943-17.032-1.664-30.243-1.664-30.243h6.107c0,0,4.95,24.189,16.543,25.354C136.997,94.045,151.021,95.729,154.528,96.889z"/>
	<path fill="#7B2E00" d="M153.52,109.694c0,0.726-0.585,1.311-1.311,1.311H124.11v28.659l-2.621,0.258v-28.917H98.6
		c-0.724,0-1.309-0.585-1.309-1.311c0-0.724,0.585-1.31,1.309-1.31h22.89V67.523h-19.067c-0.725,0-1.311-0.585-1.311-1.31
		c0-0.721,0.586-1.31,1.311-1.31h19.067V44.857c0-0.72,0.59-1.31,1.312-1.31c0.725,0,1.31,0.59,1.31,1.31v20.047h28.099
		c0.726,0,1.311,0.583,1.311,1.31c0,0.725-0.585,1.31-1.311,1.31H124.11v40.861h28.099
		C152.935,108.385,153.52,108.971,153.52,109.694z"/>
	<path fill="none" stroke="#EC008C" stroke-width="0.4367" stroke-miterlimit="10" d="M139.896,137.571"/>
	<path fill="#F1F2F2" d="M100.349,26.934c0,0,8.531,13.21,1.864,30.243c-30.346-6.987-55.885,0-55.885,0
		c6.669-17.033-1.864-30.243-1.864-30.243H100.349z"/>
	<path fill="#F1F2F2" d="M104.547,63.4c0,0,9.828,15.501,2.148,35.486c-34.947-8.199-64.361,0-64.361,0
		C50.016,78.901,40.189,63.4,40.189,63.4H104.547z"/>
	<path fill="#F1F2F2" d="M104.547,106.638c0,0,9.828,14.682,2.148,33.61c-34.947-7.766-64.361,0-64.361,0
		c7.682-18.929-2.145-33.61-2.145-33.61H104.547z"/>
	<path fill="#F1F2F2" d="M32.276,108.385c0,0,4.747,8.246,1.038,18.877c-16.883-4.361-31.092,0-31.092,0
		c3.711-10.631-1.037-18.877-1.037-18.877H32.276z"/>
	<path fill="#D1D3D4" d="M102.582,56.193c-0.076,0.209-0.255,0.689-0.369,0.983c-30.096-6.987-55.9-0.023-55.9-0.023
		c6.615-17.032-1.849-30.244-1.849-30.244h6.794c0,0,5.508,24.19,18.404,25.355C82.561,53.428,98.682,55.034,102.582,56.193z"/>
	<path fill="#D1D3D4" d="M107.025,97.852c-0.088,0.246-0.25,0.688-0.382,1.035c-34.921-8.199-64.31,0-64.31,0
		C50.007,78.901,40.189,63.4,40.189,63.4h7.883c0,0,6.39,28.382,21.355,29.747C84.393,94.516,102.499,96.491,107.025,97.852z"/>
	<path fill="#D1D3D4" d="M107.086,139.245c-0.087,0.233-0.257,0.673-0.391,1.003c-35.41-7.833-64.361,0-64.361,0
		c7.783-19.093-2.257-33.61-2.257-33.61h7.995c0,0,6.478,27.116,21.655,28.421C84.902,136.364,102.499,137.946,107.086,139.245z"/>
	<path fill="#D1D3D4" d="M33.59,126.43c-0.045,0.131-0.21,0.646-0.275,0.832c-17.484-4.404-31.092,0-31.092,0
		c3.734-10.853-1.037-18.877-1.037-18.877h4.027c0,0,3.16,15.063,10.653,15.797C23.357,124.915,31.323,125.699,33.59,126.43z"/>
	<path fill="#7B2E00" d="M106.092,105.328c0,0.724-0.586,1.31-1.313,1.31H73.824v34.576h-2.619v-34.576H40.252
		c-0.725,0-1.309-0.586-1.309-1.31c0-0.726,0.584-1.312,1.309-1.312h30.953V63.4H40.252c-0.725,0-1.309-0.584-1.309-1.31
		s0.584-1.311,1.309-1.311h30.953V26.934H44.126c-0.724,0-1.31-0.586-1.31-1.311s0.586-1.311,1.31-1.311h27.079V1.311
		C71.205,0.59,71.795,0,72.514,0c0.725,0,1.311,0.59,1.311,1.311v23.002h27.078c0.725,0,1.311,0.586,1.311,1.311
		s-0.586,1.311-1.311,1.311H73.824V60.78h30.955c0.727,0,1.313,0.585,1.313,1.311s-0.586,1.31-1.313,1.31H73.824v40.616h30.955
		C105.506,104.017,106.092,104.603,106.092,105.328z"/>
	<path fill="#7B2E00" d="M33.299,107.074c0,0.726-0.588,1.311-1.309,1.311H17.958v27.369h-2.621v-27.369H1.309
		C0.584,108.385,0,107.8,0,107.074c0-0.725,0.584-1.31,1.309-1.31h14.028v-18.37c0-0.756,0.589-1.367,1.31-1.367
		c0.727,0,1.312,0.611,1.312,1.367v18.37H31.99C32.711,105.765,33.299,106.35,33.299,107.074z"/>
	<path fill="#AC6137" d="M212.912,120.686c0,0,0,0-40.758,16.888c-40.763,16.888-26.203,37.559-26.203,37.559s-115.881,0-135.388,0
		c8.15-24.747-3.786-27.078-3.786-27.078v-12.229h29.99l5.385,5.388H97.91c0,0,52.408,1.018,110.053-22.273
		c2.365-1.019,3.201-1.311,3.201-1.311l0.308-0.1c0.534-0.157,0.479-0.162,0.825-0.162c0.96,0,1.554,0.781,1.554,1.742
		c0,0.678-0.087,1.089-0.755,1.468L212.912,120.686z"/>
	<path fill="#A15125" d="M12.391,168.578c-0.443,1.988-1.043,4.167-1.827,6.554c19.507,0,135.388,0,135.388,0
		s-14.56-20.671,26.203-37.559c40.758-16.888,40.758-16.888,40.758-16.888l0.184-0.108c0.668-0.379,0.755-0.79,0.755-1.468
		c0-0.961-0.594-1.742-1.554-1.742c-0.346,0-0.291,0.005-0.825,0.162l-0.308,0.1c0,0-0.836,0.292-3.201,1.311
		c-25.465,10.29-49.908,15.834-69.264,18.819c0,0,7.377,30.968-28.382,30.968C74.557,168.727,12.391,168.578,12.391,168.578z"/>
	<g>
		<g>
			<path fill="#7B2E00" stroke="#7B2E00" stroke-width="0.4367" stroke-miterlimit="10" d="M47.393,155.662
				c0,1.205-0.977,2.184-2.183,2.184h-4.478c-1.205,0-2.183-0.979-2.183-2.184v-1.42c0-1.208,0.978-2.185,2.183-2.185h4.478
				c1.206,0,2.183,0.977,2.183,2.185V155.662z"/>
			<circle fill="#231F20" cx="42.971" cy="154.951" r="1.965"/>
		</g>
		<g>
			<path fill="#7B2E00" stroke="#7B2E00" stroke-width="0.4367" stroke-miterlimit="10" d="M58.9,155.662
				c0,1.205-0.979,2.184-2.186,2.184h-4.477c-1.206,0-2.184-0.979-2.184-2.184v-1.42c0-1.208,0.978-2.185,2.184-2.185h4.477
				c1.207,0,2.186,0.977,2.186,2.185V155.662z"/>
			<circle fill="#231F20" cx="54.478" cy="154.951" r="1.965"/>
		</g>
		<g>
			<path fill="#7B2E00" stroke="#7B2E00" stroke-width="0.4367" stroke-miterlimit="10" d="M70.404,155.662
				c0,1.205-0.977,2.184-2.183,2.184h-4.478c-1.206,0-2.183-0.979-2.183-2.184v-1.42c0-1.208,0.977-2.185,2.183-2.185h4.478
				c1.206,0,2.183,0.977,2.183,2.185V155.662z"/>
			<circle fill="#231F20" cx="65.982" cy="154.951" r="1.965"/>
		</g>
		<g>
			<path fill="#7B2E00" stroke="#7B2E00" stroke-width="0.4367" stroke-miterlimit="10" d="M81.912,155.662
				c0,1.205-0.979,2.184-2.186,2.184h-4.475c-1.208,0-2.186-0.979-2.186-2.184v-1.42c0-1.208,0.978-2.185,2.186-2.185h4.475
				c1.207,0,2.186,0.977,2.186,2.185V155.662z"/>
			<circle fill="#231F20" cx="77.49" cy="154.951" r="1.965"/>
		</g>
		<g>
			<path fill="#7B2E00" stroke="#7B2E00" stroke-width="0.4367" stroke-miterlimit="10" d="M93.416,155.662
				c0,1.205-0.977,2.184-2.184,2.184h-4.477c-1.205,0-2.184-0.979-2.184-2.184v-1.42c0-1.208,0.979-2.185,2.184-2.185h4.477
				c1.207,0,2.184,0.977,2.184,2.185V155.662z"/>
			<circle fill="#231F20" cx="88.995" cy="154.951" r="1.966"/>
		</g>
		<g>
			<path fill="#7B2E00" stroke="#7B2E00" stroke-width="0.4367" stroke-miterlimit="10" d="M104.924,155.662
				c0,1.205-0.979,2.184-2.184,2.184h-4.478c-1.206,0-2.183-0.979-2.183-2.184v-1.42c0-1.208,0.977-2.185,2.183-2.185h4.478
				c1.205,0,2.184,0.977,2.184,2.185V155.662z"/>
			<circle fill="#231F20" cx="100.501" cy="154.951" r="1.966"/>
		</g>
		<g>
			<path fill="#7B2E00" stroke="#7B2E00" stroke-width="0.4367" stroke-miterlimit="10" d="M116.43,155.662
				c0,1.205-0.978,2.184-2.184,2.184h-4.477c-1.207,0-2.186-0.979-2.186-2.184v-1.42c0-1.208,0.979-2.185,2.186-2.185h4.477
				c1.206,0,2.184,0.977,2.184,2.185V155.662z"/>
			<circle fill="#231F20" cx="112.006" cy="154.951" r="1.965"/>
		</g>
		<g>
			<path fill="#7B2E00" stroke="#7B2E00" stroke-width="0.4367" stroke-miterlimit="10" d="M127.935,155.662
				c0,1.205-0.978,2.184-2.185,2.184h-4.474c-1.208,0-2.187-0.979-2.187-2.184v-1.42c0-1.208,0.979-2.185,2.187-2.185h4.474
				c1.207,0,2.185,0.977,2.185,2.185V155.662z"/>
			<circle fill="#231F20" cx="123.514" cy="154.951" r="1.965"/>
		</g>
	</g>
	<g>
		<path fill="#7B2E00" d="M18.193,141.7c0,0.829-0.672,1.501-1.501,1.501h-3.078c-0.831,0-1.501-0.672-1.501-1.501v-0.976
			c0-0.83,0.67-1.502,1.501-1.502h3.078c0.829,0,1.501,0.672,1.501,1.502V141.7z"/>
		<path fill="#7B2E00" d="M26.097,141.7c0,0.829-0.671,1.501-1.499,1.501h-3.079c-0.831,0-1.503-0.672-1.503-1.501v-0.976
			c0-0.83,0.672-1.502,1.503-1.502h3.079c0.828,0,1.499,0.672,1.499,1.502V141.7z"/>
	</g>
	<polygon fill="#BE1E2D" points="47.434,14.739 74.611,14.739 74.611,2.184 47.434,2.184 53.846,8.462 	"/>
	<polygon fill="#BE1E2D" points="1.42,96.299 18.482,96.299 18.482,88.187 1.42,88.187 5.445,92.242 	"/>
</g>
<g>
	<g>
		<path fill="#F1F2F2" d="M365.314,111.005c0,0,15.303,11.552,1.213,30.613c-28.093-7.073-51.737,0-51.737,0
			c15.386-17.846-1.728-30.613-1.728-30.613H365.314z"/>
		<path fill="#D1D3D4" d="M367.225,140.369c-0.072,0.215-0.588,0.944-0.697,1.249c-28.48-7.23-51.737,0-51.737,0
			c15.538-18.232-2.04-30.613-2.04-30.613h7.938c0,0,4.908,23.729,17.116,24.936C350.01,137.145,363.533,139.168,367.225,140.369z"
			/>
	</g>
	<g>
		<path fill="#F1F2F2" d="M366.703,67.525c0,0,14.813,11.353,1.174,30.083c-27.191-6.95-50.078,0-50.078,0
			c14.893-17.536-1.672-30.083-1.672-30.083H366.703z"/>
		<path fill="#D1D3D4" d="M368.551,96.381c-0.069,0.212-0.568,0.928-0.674,1.228c-27.566-7.105-50.078,0-50.078,0
			c15.04-17.916-1.973-30.083-1.973-30.083h7.682c0,0,4.752,23.318,16.567,24.503S364.979,95.201,368.551,96.381z"/>
	</g>
	<path fill="#7B2E00" d="M367.371,109.694c0,0.726-0.585,1.311-1.31,1.311h-28.1v28.658l-2.62,0.258v-28.916h-22.89
		c-0.726,0-1.31-0.585-1.31-1.311c0-0.725,0.584-1.31,1.31-1.31h22.89V67.523h-19.068c-0.725,0-1.311-0.585-1.311-1.31
		c0-0.722,0.586-1.311,1.311-1.311h19.068V44.857c0-0.721,0.589-1.311,1.311-1.311c0.725,0,1.31,0.59,1.31,1.311v20.046h28.1
		c0.725,0,1.31,0.585,1.31,1.311c0,0.725-0.585,1.31-1.31,1.31h-28.1v40.861h28.1C366.786,108.385,367.371,108.97,367.371,109.694z"
		/>
	<g>
		<path fill="#F1F2F2" d="M314.754,26.934c0,0,16.528,11.412,1.31,30.244c-30.344-6.988-55.884,0-55.884,0
			c16.619-17.631-1.864-30.244-1.864-30.244H314.754z"/>
		<path fill="#D1D3D4" d="M316.815,55.943c-0.077,0.213-0.634,0.933-0.752,1.234c-30.763-7.144-55.884,0-55.884,0
			c16.783-18.013-2.201-30.244-2.201-30.244h8.572c0,0,5.303,23.443,18.487,24.634S312.829,54.758,316.815,55.943z"/>
	</g>
	<g>
		<path fill="#F1F2F2" d="M317.429,63.4c0,0,18.435,13.375,1.461,35.442c-33.844-8.188-62.327,0-62.327,0
			c18.535-20.66-2.081-35.442-2.081-35.442H317.429z"/>
		<path fill="#D1D3D4" d="M319.729,97.396c-0.087,0.25-0.708,1.094-0.839,1.447c-34.312-8.371-62.327,0-62.327,0
			c18.718-21.108-2.457-35.442-2.457-35.442h9.561c0,0,5.915,27.473,20.62,28.868C298.991,93.663,315.281,96.007,319.729,97.396z"/>
	</g>
	<g>
		<path fill="#F1F2F2" d="M318.221,106.659c0,0,18.874,12.646,1.496,33.511c-34.648-7.742-63.811,0-63.811,0
			c18.977-19.534-2.129-33.511-2.129-33.511H318.221z"/>
		<path fill="#D1D3D4" d="M320.576,138.802c-0.089,0.236-0.725,1.034-0.859,1.368c-35.127-7.915-63.811,0-63.811,0
			c19.164-19.958-2.515-33.511-2.515-33.511h9.788c0,0,6.056,25.976,21.111,27.295C299.346,135.272,316.023,137.488,320.576,138.802
			z"/>
	</g>
	<g>
		<path fill="#F1F2F2" d="M246.229,108.064c0,0,9.081,7.075,0.721,18.748c-16.672-4.331-30.703,0-30.703,0
			c9.131-10.929-1.024-18.748-1.024-18.748H246.229z"/>
		<path fill="#D1D3D4" d="M247.361,126.048c-0.043,0.132-0.348,0.578-0.412,0.765c-16.902-4.428-30.703,0-30.703,0
			c9.221-11.166-1.209-18.748-1.209-18.748h4.709c0,0,2.914,14.533,10.157,15.271C237.146,124.073,245.172,125.313,247.361,126.048z
			"/>
	</g>
	<path fill="none" stroke="#EC008C" stroke-width="0.4367" stroke-miterlimit="10" d="M353.746,137.57"/>
	<path fill="#7B2E00" d="M319.942,105.327c0,0.726-0.585,1.311-1.311,1.311h-30.956v34.576h-2.62v-34.576h-30.951
		c-0.726,0-1.31-0.585-1.31-1.311c0-0.725,0.584-1.31,1.31-1.31h30.951V63.4h-30.951c-0.726,0-1.31-0.585-1.31-1.31
		c0-0.726,0.584-1.311,1.31-1.311h30.951V26.934h-27.077c-0.726,0-1.311-0.586-1.311-1.311s0.585-1.311,1.311-1.311h27.077V1.311
		c0-0.721,0.59-1.311,1.31-1.311c0.726,0,1.311,0.59,1.311,1.311v23.002h27.078c0.725,0,1.31,0.586,1.31,1.311
		s-0.585,1.311-1.31,1.311h-27.078V60.78h30.956c0.726,0,1.311,0.585,1.311,1.311c0,0.725-0.585,1.31-1.311,1.31h-30.956v40.617
		h30.956C319.357,104.018,319.942,104.603,319.942,105.327z"/>
	<path fill="#7B2E00" d="M247.152,107.074c0,0.725-0.59,1.311-1.311,1.311h-14.033v27.37h-2.62v-27.37H215.16
		c-0.725,0-1.31-0.586-1.31-1.311s0.585-1.311,1.31-1.311h14.028V87.396c0-0.756,0.59-1.368,1.31-1.368
		c0.726,0,1.311,0.612,1.311,1.368v18.368h14.033C246.563,105.764,247.152,106.35,247.152,107.074z"/>
	<path fill="#AC6137" d="M426.768,120.686c0,0,0,0-40.762,16.887c-40.762,16.888-26.204,37.56-26.204,37.56s-115.88,0-135.388,0
		c8.152-24.748-3.785-27.077-3.785-27.077v-12.229h29.988l5.387,5.386h55.757c0,0,52.408,1.019,110.058-22.273
		c2.365-1.019,3.202-1.31,3.202-1.31l0.308-0.101c0.535-0.157,0.48-0.162,0.825-0.162c0.96,0,1.554,0.782,1.554,1.743
		c0,0.677-0.086,1.088-0.753,1.468L426.768,120.686z"/>
	<path fill="#A15125" d="M226.24,168.578c-0.441,1.988-1.041,4.167-1.826,6.554c19.508,0,135.388,0,135.388,0
		s-14.558-20.672,26.204-37.56c40.762-16.887,40.762-16.887,40.762-16.887l0.187-0.108c0.667-0.38,0.753-0.791,0.753-1.468
		c0-0.961-0.594-1.743-1.554-1.743c-0.345,0-0.29,0.005-0.825,0.162l-0.308,0.101c0,0-0.837,0.291-3.202,1.31
		c-25.468,10.29-49.912,15.835-69.268,18.819c0,0,7.377,30.969-28.383,30.969S226.24,168.578,226.24,168.578z"/>
	<g>
		<g>
			<path fill="#7B2E00" stroke="#7B2E00" stroke-width="0.4367" stroke-miterlimit="10" d="M261.245,155.661
				c0,1.206-0.978,2.184-2.185,2.184h-4.476c-1.206,0-2.185-0.978-2.185-2.184v-1.42c0-1.206,0.979-2.184,2.185-2.184h4.476
				c1.207,0,2.185,0.978,2.185,2.184V155.661z"/>
			<circle fill="#231F20" cx="256.823" cy="154.951" r="1.965"/>
		</g>
		<g>
			<path fill="#7B2E00" stroke="#7B2E00" stroke-width="0.4367" stroke-miterlimit="10" d="M272.751,155.661
				c0,1.206-0.978,2.184-2.184,2.184h-4.477c-1.206,0-2.184-0.978-2.184-2.184v-1.42c0-1.206,0.978-2.184,2.184-2.184h4.477
				c1.206,0,2.184,0.978,2.184,2.184V155.661z"/>
			<circle fill="#231F20" cx="268.329" cy="154.951" r="1.966"/>
		</g>
		<g>
			<path fill="#7B2E00" stroke="#7B2E00" stroke-width="0.4367" stroke-miterlimit="10" d="M284.257,155.661
				c0,1.206-0.978,2.184-2.184,2.184h-4.477c-1.206,0-2.185-0.978-2.185-2.184v-1.42c0-1.206,0.979-2.184,2.185-2.184h4.477
				c1.206,0,2.184,0.978,2.184,2.184V155.661z"/>
			<circle fill="#231F20" cx="279.834" cy="154.951" r="1.965"/>
		</g>
		<g>
			<path fill="#7B2E00" stroke="#7B2E00" stroke-width="0.4367" stroke-miterlimit="10" d="M295.762,155.661
				c0,1.206-0.977,2.184-2.184,2.184h-4.477c-1.205,0-2.184-0.978-2.184-2.184v-1.42c0-1.206,0.979-2.184,2.184-2.184h4.477
				c1.207,0,2.184,0.978,2.184,2.184V155.661z"/>
			<circle fill="#231F20" cx="291.34" cy="154.951" r="1.965"/>
		</g>
		<g>
			<path fill="#7B2E00" stroke="#7B2E00" stroke-width="0.4367" stroke-miterlimit="10" d="M307.269,155.661
				c0,1.206-0.978,2.184-2.184,2.184h-4.477c-1.206,0-2.185-0.978-2.185-2.184v-1.42c0-1.206,0.979-2.184,2.185-2.184h4.477
				c1.206,0,2.184,0.978,2.184,2.184V155.661z"/>
			<circle fill="#231F20" cx="302.847" cy="154.951" r="1.966"/>
		</g>
		<g>
			<path fill="#7B2E00" stroke="#7B2E00" stroke-width="0.4367" stroke-miterlimit="10" d="M318.774,155.661
				c0,1.206-0.978,2.184-2.184,2.184h-4.477c-1.206,0-2.184-0.978-2.184-2.184v-1.42c0-1.206,0.978-2.184,2.184-2.184h4.477
				c1.206,0,2.184,0.978,2.184,2.184V155.661z"/>
			<circle fill="#231F20" cx="314.353" cy="154.951" r="1.966"/>
		</g>
		<g>
			<path fill="#7B2E00" stroke="#7B2E00" stroke-width="0.4367" stroke-miterlimit="10" d="M330.281,155.661
				c0,1.206-0.979,2.184-2.184,2.184h-4.477c-1.207,0-2.185-0.978-2.185-2.184v-1.42c0-1.206,0.978-2.184,2.185-2.184h4.477
				c1.205,0,2.184,0.978,2.184,2.184V155.661z"/>
			<circle fill="#231F20" cx="325.859" cy="154.951" r="1.965"/>
		</g>
		<g>
			<path fill="#7B2E00" stroke="#7B2E00" stroke-width="0.4367" stroke-miterlimit="10" d="M341.786,155.661
				c0,1.206-0.978,2.184-2.184,2.184h-4.477c-1.206,0-2.184-0.978-2.184-2.184v-1.42c0-1.206,0.978-2.184,2.184-2.184h4.477
				c1.206,0,2.184,0.978,2.184,2.184V155.661z"/>
			<circle fill="#231F20" cx="337.364" cy="154.951" r="1.966"/>
		</g>
	</g>
	<g>
		<path fill="#7B2E00" d="M232.045,141.7c0,0.829-0.672,1.501-1.501,1.501h-3.079c-0.828,0-1.501-0.672-1.501-1.501v-0.977
			c0-0.829,0.673-1.501,1.501-1.501h3.079c0.829,0,1.501,0.672,1.501,1.501V141.7z"/>
		<path fill="#7B2E00" d="M239.949,141.7c0,0.829-0.672,1.501-1.502,1.501h-3.078c-0.829,0-1.501-0.672-1.501-1.501v-0.977
			c0-0.829,0.672-1.501,1.501-1.501h3.078c0.83,0,1.502,0.672,1.502,1.501V141.7z"/>
	</g>
	<polygon fill="#BE1E2D" points="261.285,14.74 288.463,14.74 288.463,2.184 261.285,2.184 267.697,8.462 	"/>
	<polygon fill="#BE1E2D" points="215.271,96.299 232.334,96.299 232.334,88.186 215.271,88.186 219.297,92.242 	"/>
</g>
</svg>
