<?xml version="1.0" encoding="utf-8"?>
<!-- Generator: Adobe Illustrator 16.0.0, SVG Export Plug-In . SVG Version: 6.00 Build 0)  -->
<!DOCTYPE svg PUBLIC "-//W3C//DTD SVG 1.1//EN" "http://www.w3.org/Graphics/SVG/1.1/DTD/svg11.dtd">
<svg version="1.1" id="Layer_1" xmlns="http://www.w3.org/2000/svg" xmlns:xlink="http://www.w3.org/1999/xlink" x="0px" y="0px"
	 width="23.601px" height="26.792px" viewBox="0 0 23.601 26.792" enable-background="new 0 0 23.601 26.792" xml:space="preserve">
<g>
	<g>
		<g>
			<g>
				<path fill="#A97C50" d="M12.703,11.924c0.493-1.34,0.996-2.667,1.794-3.858c0.919-1.373,2.45-2.163,3.948-2.736
					c0.984-0.376,0.558-1.972-0.438-1.592c-1.688,0.646-3.248,1.462-4.442,2.848c-1.2,1.394-1.827,3.2-2.454,4.899
					C10.743,12.485,12.338,12.913,12.703,11.924L12.703,11.924z"/>
			</g>
		</g>
		<g>
			<g>
				<g>
					<path fill="#F15A29" d="M20.482,4.85c0.265-1.188,0.678-2.326,1.098-3.465c0.367-1.001-1.227-1.429-1.592-0.439
						c-0.419,1.14-0.832,2.278-1.096,3.465C18.661,5.447,20.252,5.888,20.482,4.85L20.482,4.85z"/>
				</g>
			</g>
			<g>
				<g>
					<path fill="#F15A29" d="M19.896,2.424c-0.644-0.253-1.098-0.837-1.521-1.356c-0.284-0.35-0.873-0.294-1.166,0
						c-0.342,0.342-0.284,0.818,0,1.166c0.635,0.779,1.304,1.409,2.25,1.782c0.418,0.165,0.904-0.178,1.014-0.576
						C20.602,2.971,20.314,2.589,19.896,2.424L19.896,2.424z"/>
				</g>
			</g>
			<g>
				<g>
					<path fill="#F15A29" d="M18.736,4.353c-0.171,0.466-0.342,0.931-0.512,1.396c-0.367,1.002,1.227,1.43,1.59,0.439
						c0.172-0.466,0.342-0.931,0.512-1.396C20.693,3.79,19.098,3.362,18.736,4.353L18.736,4.353z"/>
				</g>
			</g>
			<g>
				<g>
					<path fill="#F15A29" d="M20.428,5.063c0.564,0.357,1.007,0.817,1.375,1.372c0.586,0.882,2.016,0.057,1.426-0.832
						C22.699,4.806,22.07,4.15,21.26,3.639C20.358,3.067,19.531,4.496,20.428,5.063L20.428,5.063z"/>
				</g>
			</g>
			<g>
				<g>
					<path fill="#F15A29" d="M21.598,4.469c0.56-0.623,1.119-1.247,1.725-1.827c0.77-0.737-0.398-1.902-1.166-1.166
						C21.551,2.055,20.99,2.68,20.43,3.303C19.721,4.091,20.884,5.262,21.598,4.469L21.598,4.469z"/>
				</g>
			</g>
		</g>
		<g>
			<g>
				<g>
					<path fill="#F7941E" d="M19.998,4.495c0.264-1.187,0.677-2.325,1.094-3.463c0.367-1.002-1.227-1.43-1.59-0.439
						c-0.418,1.139-0.832,2.277-1.096,3.463C18.176,5.093,19.767,5.533,19.998,4.495L19.998,4.495z"/>
				</g>
			</g>
			<g>
				<g>
					<path fill="#F7941E" d="M19.41,2.069c-0.645-0.253-1.098-0.837-1.52-1.356c-0.285-0.35-0.874-0.294-1.168,0
						c-0.342,0.342-0.283,0.817,0,1.166c0.634,0.779,1.303,1.409,2.248,1.782c0.42,0.165,0.906-0.178,1.016-0.576
						C20.115,2.616,19.828,2.234,19.41,2.069L19.41,2.069z"/>
				</g>
			</g>
			<g>
				<g>
					<path fill="#F7941E" d="M18.252,3.999c-0.172,0.465-0.342,0.929-0.514,1.393C17.37,6.393,18.965,6.82,19.33,5.831
						c0.17-0.465,0.341-0.929,0.512-1.393C20.212,3.438,18.617,3.01,18.252,3.999L18.252,3.999z"/>
				</g>
			</g>
			<g>
				<g>
					<path fill="#F7941E" d="M19.941,4.709c0.565,0.357,1.008,0.818,1.377,1.373c0.587,0.881,2.017,0.057,1.426-0.832
						c-0.53-0.797-1.159-1.453-1.971-1.965C19.871,2.715,19.045,4.143,19.941,4.709L19.941,4.709z"/>
				</g>
			</g>
			<g>
				<g>
					<path fill="#F7941E" d="M21.113,4.115c0.56-0.623,1.117-1.249,1.725-1.828c0.77-0.736-0.398-1.9-1.168-1.166
						c-0.605,0.579-1.164,1.205-1.725,1.828C19.236,3.737,20.4,4.908,21.113,4.115L21.113,4.115z"/>
				</g>
			</g>
		</g>
	</g>
	<path fill="#231F20" d="M19.303,17.142c0,5.329-4.321,9.65-9.652,9.65c-5.33,0-9.65-4.321-9.65-9.65c0-5.33,4.32-9.65,9.65-9.65
		c0.84,0,1.654,0.107,2.432,0.307l0.581-1.101l2.611,1.378l-0.477,0.901C17.507,10.687,19.303,13.704,19.303,17.142z"/>
	<path fill-rule="evenodd" clip-rule="evenodd" d="M2.924,18.932c-0.4-0.215-0.63-0.518-0.51-0.981
		c0.086-0.329,0.307-0.536,0.641-0.592c0.459-0.077,0.764,0.152,0.941,0.537c0.721-0.294,1.424-0.581,2.098-0.855
		c-0.031-0.386-0.096-0.763-0.086-1.137c0.016-0.539,0.227-1.022,0.575-1.434c0.112-0.133,0.142-0.24,0.069-0.408
		c-0.176-0.403-0.324-0.819-0.492-1.241c-0.457,0.171-0.832,0.126-1.115-0.247c-0.205-0.27-0.217-0.642-0.023-0.924
		c0.249-0.365,0.605-0.427,1.023-0.322c0.212-0.377,0.52-0.578,0.965-0.464c0.333,0.085,0.559,0.342,0.596,0.671
		c0.05,0.453-0.183,0.738-0.558,0.917c0.165,0.415,0.329,0.822,0.501,1.256c1.096-0.518,2.21-0.473,3.323-0.078
		c1.114,0.395,1.944,1.126,2.513,2.194c0.281-0.138,0.555-0.273,0.848-0.419c-0.135-0.365-0.098-0.752,0.292-1.031
		c0.287-0.205,0.603-0.209,0.899-0.023c0.375,0.234,0.441,0.594,0.346,1.006c0.373,0.229,0.566,0.544,0.469,0.984
		c-0.069,0.311-0.354,0.557-0.677,0.596c-0.45,0.055-0.741-0.169-0.913-0.548c-0.324,0.14-0.641,0.276-0.973,0.419
		c0.059,1.49-0.625,2.337-1.873,2.896c0.244,0.576,0.485,1.149,0.736,1.737c0.294-0.104,0.602-0.119,0.885,0.095
		c0.295,0.224,0.408,0.628,0.267,0.966c-0.14,0.335-0.476,0.52-0.843,0.491c-0.103-0.009-0.252,0.019-0.307,0.087
		c-0.242,0.309-0.539,0.442-0.919,0.34c-0.343-0.093-0.541-0.332-0.581-0.683c-0.043-0.39,0.126-0.674,0.475-0.854
		c0.027-0.016,0.053-0.032,0.122-0.074c-0.249-0.587-0.501-1.183-0.762-1.771c-0.026-0.06-0.153-0.129-0.206-0.111
		c-0.119,0.044-0.273,0.111-0.322,0.213c-0.184,0.377-0.332,0.773-0.502,1.187c-0.219-0.09-0.418-0.173-0.619-0.258
		c0.027-0.124,0.053-0.241,0.079-0.358c-0.034-0.012-0.065-0.024-0.099-0.036c-0.057,0.097-0.115,0.191-0.186,0.312
		c-0.148-0.062-0.303-0.125-0.462-0.193c0.028-0.122,0.056-0.234,0.08-0.346c-0.024-0.016-0.05-0.03-0.073-0.046
		c-0.076,0.098-0.15,0.195-0.236,0.307c-0.133-0.056-0.271-0.112-0.427-0.176c0.026-0.125,0.05-0.244,0.076-0.364
		c-0.027-0.015-0.054-0.028-0.082-0.044c-0.075,0.101-0.151,0.199-0.237,0.313c-0.136-0.057-0.274-0.114-0.429-0.179
		c0.026-0.123,0.05-0.248,0.075-0.373c-0.031-0.012-0.065-0.023-0.098-0.036c-0.06,0.096-0.115,0.19-0.188,0.312
		c-0.149-0.063-0.304-0.127-0.498-0.208c0.152-0.365,0.293-0.737,0.461-1.098c0.094-0.204,0.096-0.358-0.076-0.52
		c-0.124-0.12-0.22-0.269-0.379-0.468c-0.334,0.155-0.683,0.326-1.039,0.479c-0.359,0.152-0.728,0.287-1.111,0.437
		c0.163,0.479,0.119,0.884-0.312,1.16c-0.3,0.192-0.614,0.166-0.897-0.037C2.832,19.662,2.768,19.327,2.924,18.932z M8.353,16.025
		c-0.493-0.198-1.069,0.05-1.271,0.548c-0.199,0.492,0.045,1.065,0.543,1.278c0.499,0.21,1.082-0.045,1.287-0.564
		C9.106,16.785,8.861,16.231,8.353,16.025z M9.988,17.859c-0.201,0.498,0.037,1.072,0.532,1.275
		c0.493,0.203,1.077-0.036,1.282-0.526c0.212-0.51-0.033-1.095-0.547-1.295C10.75,17.114,10.193,17.354,9.988,17.859z M9.086,19.692
		c-0.043-0.354-0.084-0.665-0.131-1.028c-0.287,0.225-0.537,0.42-0.814,0.637C8.471,19.436,8.75,19.553,9.086,19.692z"/>
	<path opacity="0.1" fill="#FFFFFF" d="M13.949,7.357l1.325,0.699l-0.477,0.9c2.709,1.711,4.505,4.728,4.505,8.165
		c0,5.33-4.321,9.651-9.652,9.651c-1.732,0-3.361-0.457-4.766-1.257"/>
</g>
</svg>
