<?xml version="1.0" encoding="utf-8"?>
<!-- Generator: Adobe Illustrator 16.0.0, SVG Export Plug-In . SVG Version: 6.00 Build 0)  -->
<!DOCTYPE svg PUBLIC "-//W3C//DTD SVG 1.1//EN" "http://www.w3.org/Graphics/SVG/1.1/DTD/svg11.dtd">
<svg version="1.1" id="Layer_1" xmlns="http://www.w3.org/2000/svg" xmlns:xlink="http://www.w3.org/1999/xlink" x="0px" y="0px"
	 width="1080.41px" height="446.254px" viewBox="0 0 1080.41 446.254" enable-background="new 0 0 1080.41 446.254"
	 xml:space="preserve">
<rect fill="#C0E5E7" width="1080.41" height="446.254"/>
<path fill="#FFFFFF" d="M1006.323,143.871c-3.765-12.122-14.878-21.007-28.133-21.449c-4.96-22.508-25.023-39.351-49.023-39.351
	c-19.795,0-36.91,11.458-45.087,28.102c-1.675-0.216-3.381-0.339-5.116-0.339c-19.674,0-36.002,14.279-39.213,33.037H1006.323z"/>
<path fill="#FFFFFF" d="M624.27,128.592c-2.819-9.075-11.138-15.729-21.063-16.06c-3.716-16.852-18.735-29.461-36.705-29.461
	c-14.82,0-27.635,8.578-33.756,21.038c-1.256-0.161-2.534-0.252-3.832-0.252c-14.73,0-26.955,10.69-29.359,24.734H624.27z"/>
<path fill="#FFFFFF" d="M276.245,155.581c-4.021-12.932-15.877-22.413-30.021-22.885c-5.29-24.016-26.699-41.985-52.307-41.985
	c-21.119,0-39.38,12.226-48.104,29.983c-1.791-0.229-3.611-0.362-5.464-0.362c-20.989,0-38.411,15.235-41.838,35.249H276.245z"/>
</svg>
