<?xml version="1.0" encoding="utf-8"?>
<!-- Generator: Adobe Illustrator 16.0.0, SVG Export Plug-In . SVG Version: 6.00 Build 0)  -->
<!DOCTYPE svg PUBLIC "-//W3C//DTD SVG 1.1//EN" "http://www.w3.org/Graphics/SVG/1.1/DTD/svg11.dtd">
<svg version="1.1" id="Layer_1" xmlns="http://www.w3.org/2000/svg" xmlns:xlink="http://www.w3.org/1999/xlink" x="0px" y="0px"
	 width="1080.408px" height="148.678px" viewBox="0 0 1080.408 148.678" enable-background="new 0 0 1080.408 148.678"
	 xml:space="preserve">
<g>
	<g>
		<g>
			<path fill="#009CD7" d="M1080.408,44.359c-23.72-5.598-51.585-21.186-80.052-21.186c-23.718,0-31.428,1.998-55.146,2.799
				c-29.649,0.8-48.626-6.797-73.531-13.192c-21.351-5.597-57.518,2.001-77.677,7.595c-32.021,8.795-40.92-0.796-72.941-7.994
				c-42.695-9.592-66.412-2.396-103.18,11.195c-28.461,10.391-64.039-3.997-97.248,0c-34.394,3.994-61.666,13.586-98.432,7.993
				c-20.164-3.199-35.582-11.194-56.931-11.194c-20.159,0-33.204,6.397-50.995,7.995c-41.51,3.199-69.973-12.792-105.551-23.185
				c-32.02-9.592-71.156-4.797-100.808,5.595C77.083,21.177,36.761,48.358-0.002,44.359v62.357h1080.41V44.359z"/>
		</g>
		<path fill="#00B7F1" d="M1080.408,82.263v34.946H-0.002V75.593c20.532-13.364,35.43-16.688,50.091-18.885
			c22.806-4.393,44.792,4.335,65.971,7.628c26.066,5.489,30.543-4.939,56.611-7.137c32.574-3.294,69.228,10.568,101.805,10.568
			c55.386,0,79.821-13.037,133.576-19.627c60.275-6.588,105.674,10.951,161.809,19.627c44.392,6.866,78.738-7.182,116.203-11.574
			c52.128-6.591,88.506,10.476,139.004,11.574c35.837,2.199,62.717-17.43,98.554-17.43c41.808,0,77.482,26.13,114.897,30.863
			c7.242,0.919,14.552,1.031,21.977,0h19.913V82.263"/>
		<path fill="#6ACFF6" d="M1080.408,112.7v35.978H-0.002V112.7c67.969-13.374,129.706-3.054,195.42-3.755
			c36.077-0.702,65.099-11.32,102.223-8.914c38.009,2.463,41.56,12.669,82.468,2.057c29.206-7.573,78.791-14.676,110.275-1.262
			c29.66,12.632,71.727-1.781,105.471-7.711c38.969-6.843,83.186,7.972,121.837,13.6c36.078,4.226,74.093,3.872,108.884-0.353
			c45.099-4.923,65.004-15.015,110.101-15.015C979.194,91.348,1042.184,118.388,1080.408,112.7z"/>
	</g>
	<g>
		<path opacity="0.6" fill="none" stroke="#FFFFFF" stroke-width="1.8938" stroke-miterlimit="10" d="M1080.408,116.198
			c-36.536-4.4-81.946-19.982-114.99-19.982c-45.099,0-65.003,9.627-110.101,14.328c-34.791,4.029-72.801,4.365-108.879,0.336
			c-38.657-5.371-82.871-19.508-121.84-12.977c-33.748,5.656-75.813,19.408-105.471,7.354c-31.486-12.799-81.075-6.02-110.278,1.207
			c-40.909,10.127-44.455,0.387-82.466-1.963c-37.127-2.297-66.146,7.836-102.223,8.504c-65.714,0.672-127.453-9.178-195.424,3.586
			c0,0-15.247,1.625-28.739-0.393"/>
		<path opacity="0.6" fill="none" stroke="#FFFFFF" stroke-width="1.8938" stroke-miterlimit="10" d="M1080.408,89.212
			c-1.407-0.109-2.813-0.248-4.218-0.422c-37.414-4.516-73.094-29.447-114.896-29.447c-35.838,0-62.719,18.729-98.554,16.633
			c-50.496-1.049-86.88-17.332-139.006-11.043c-37.466,4.189-71.81,17.592-116.198,11.043
			c-56.139-8.279-101.539-25.016-161.813-18.729c-53.754,6.287-78.189,18.729-133.577,18.729
			c-32.573,0-69.229-13.227-101.809-10.088c-26.062,2.098-30.544,12.051-56.606,6.813c-21.178-3.143-43.166-11.473-65.971-7.279
			c-14.662,2.096-29.557,5.27-50.096,18.02c0,0-10.111,6.26-37.667,5.563"/>
		<path opacity="0.6" fill="none" stroke="#FFFFFF" stroke-width="1.8938" stroke-miterlimit="10" d="M1080.408,39.868
			c-12.714-4.02-25.919-7.291-39.262-7.291c-23.718,0-31.429,1.908-55.147,2.67c-29.648,0.768-48.625-6.48-73.527-12.584
			c-21.351-5.342-57.523,1.906-77.684,7.246c-32.02,8.389-40.92-0.76-72.939-7.629c-42.691-9.152-66.413-2.287-103.176,10.682
			c-28.466,9.916-64.041-3.813-97.25,0c-34.395,3.813-61.669,12.967-98.438,7.627c-20.157-3.051-35.578-10.68-56.925-10.68
			c-20.161,0-33.205,6.105-50.993,7.629c-41.511,3.051-69.975-12.207-105.551-22.123c-32.025-9.152-71.161-4.576-100.809,5.342
			c-30.837,9.916-71.158,35.85-107.924,32.037c0,0-16.99-1.816-40.786-12.926"/>
	</g>
</g>
</svg>
