<?xml version="1.0" encoding="utf-8"?>
<!-- Generator: Adobe Illustrator 16.0.0, SVG Export Plug-In . SVG Version: 6.00 Build 0)  -->
<!DOCTYPE svg PUBLIC "-//W3C//DTD SVG 1.1//EN" "http://www.w3.org/Graphics/SVG/1.1/DTD/svg11.dtd">
<svg version="1.1" id="Layer_1" xmlns="http://www.w3.org/2000/svg" xmlns:xlink="http://www.w3.org/1999/xlink" x="0px" y="0px"
	 width="1080.414px" height="183.056px" viewBox="0 0 1080.414 183.056" enable-background="new 0 0 1080.414 183.056"
	 xml:space="preserve">
<g>
	<path fill="#006B96" d="M1080.414,17.74v165.315H0V17.74c67.973-11.114,129.71-2.537,195.424-3.122
		c36.077-0.582,65.093-9.402,102.217-7.404c38.015,2.047,41.565,10.526,82.468,1.71c29.21-6.292,78.795-12.19,110.281-1.052
		c29.658,10.495,71.725-1.477,105.471-6.401c38.965-5.686,83.183,6.62,121.837,11.298c36.078,3.509,74.089,3.216,108.88-0.295
		C871.674,8.384,891.583,0,936.682,0C979.2,0,1042.189,22.462,1080.414,17.74z"/>
	<path opacity="0.6" fill="none" stroke="#FFFFFF" stroke-width="1.8003" stroke-miterlimit="10" d="M1080.414,22.859
		c-36.538-3.975-81.946-18.058-114.99-18.058c-45.099,0-65.003,8.703-110.101,12.947c-34.791,3.645-72.801,3.946-108.879,0.308
		c-38.657-4.854-82.871-17.631-121.84-11.729c-33.748,5.111-75.813,17.54-105.471,6.646c-31.486-11.564-81.075-5.44-110.278,1.091
		c-40.909,9.15-44.455,0.351-82.466-1.775c-37.127-2.073-66.146,7.079-102.223,7.688c-65.714,0.607-127.453-8.294-195.424,3.238
		c0,0-15.247,1.472-28.739-0.355"/>
</g>
</svg>
